<svg width="24" height="24" fill="none" xmlns="http://www.w3.org/2000/svg"><g clip-path="url(#a)"><path d="M12.006.501C5.391.506.005 5.851 0 12.42v.03l2.042 1.19.028-.018a5.82 5.82 0 0 1 3.308-1.02c.37 0 .733.034 1.085.1l-.036-.006a5.69 5.69 0 0 1 2.874 1.43l-.004-.002.35.326.198-.434c.192-.42.414-.814.66-1.173.1-.144.208-.29.332-.446l.205-.257-.252-.21a8.329 8.329 0 0 0-3.836-1.808l-.052-.008a8.565 8.565 0 0 0-4.08.251l.06-.016c.972-4.256 4.714-7.223 9.133-7.226a9.31 9.31 0 0 1 6.6 2.713 9.196 9.196 0 0 1 2.508 4.498 8.384 8.384 0 0 0-2.498-.379h-.154c-.356.006-.7.033-1.036.078l.045-.005-.042.006c-.13.017-.26.037-.39.06-.057.01-.114.022-.17.033a7.968 7.968 0 0 0-.392.09l-.138.034a9.23 9.23 0 0 0-.483.144l-.03.01c-.354.12-.708.268-1.05.44l-.027.013a8.41 8.41 0 0 0-.47.256l-.035.022a8.217 8.217 0 0 0-2.108 1.8l-.011.014-.075.092c-.132.163-.258.33-.378.503-.088.13-.177.27-.288.452l-.06.104c-.082.142-.16.286-.234.432l-.016.03c-.17.34-.317.697-.44 1.062l-.017.053a8.052 8.052 0 0 0-.41 2.716v-.007.112c.005.144.013.288.023.431l-.002-.037c.012.138.026.275.042.412l.005.042.013.103c.018.127.038.252.062.378.241 1.266.845 2.532 1.745 3.66l.041.051.042-.05c.359-.424 1.249-1.77 1.325-2.577v-.015l-.006-.013a5.56 5.56 0 0 1-.64-2.595c0-3.016 2.37-5.52 5.396-5.702l.2-.007a5.93 5.93 0 0 1 3.47 1.025l.027.02L24 12.435v-.03a11.77 11.77 0 0 0-3.51-8.423A11.962 11.962 0 0 0 12.007.5l-.001.001Z" fill="#F01F7A"/></g><defs><clipPath id="a"><path fill="#fff" d="M0 0h24v24H0z"/></clipPath></defs></svg>
