<svg width="24" height="24" fill="none" xmlns="http://www.w3.org/2000/svg"><path d="M7.218 7.219 5.861 5.86l.004 9.813.016.46c.008.217.045.459.115.709l10.756 3.794 2.687-1.19v-.003L7.22 7.219Z" fill="#00D2B8"/><path d="m5.996 16.843-.004-.012.004.012Zm13.443 2.6-2.687 1.19-10.756-3.79c.205.788.66 1.674 1.149 2.158l3.511 3.49 7.807.009.976-3.056Z" fill="#55DDCA"/><path d="M1.68 12.174c-.348.37-.176 1.137.386 1.699l2.412 2.437 1.518.533a3.437 3.437 0 0 1-.115-.71l-.016-.46-.004-9.812-4.18 6.313Z" fill="#0081C6"/><path d="M16.838 5.988a3.407 3.407 0 0 0-.713-.11l-.484-.017H5.86l13.582 13.583 1.194-2.691-3.799-10.765Z" fill="#0079B3"/><path d="m16.826 5.984.013.004-.013-.004Zm2.17 1.157c-.492-.497-1.366-.948-2.157-1.153l3.794 10.765-1.194 2.69 2.917-.93.008-7.992-3.368-3.38Z" fill="#00A4E4"/><path d="m16.31 4.478-2.433-2.416c-.562-.558-1.33-.73-1.699-.382L5.861 5.86h9.78l.484.017c.217.008.46.045.713.111l-.529-1.51Z" fill="#00D2B8"/></svg>
