<svg width="24" height="24" fill="none" xmlns="http://www.w3.org/2000/svg"><path d="M11.055.008c-.056.006-.236.027-.399.041C8.348.291 6.076 1.27 4.222 2.82c-.497.438-.966.908-1.405 1.405C1.282 6.058.385 8.115.055 10.55c-.074.54-.074 2.364 0 2.904.33 2.435 1.228 4.492 2.763 6.325.438.498.907.967 1.405 1.405 1.833 1.535 3.89 2.432 6.324 2.762.54.073 2.364.073 2.904 0 2.435-.33 4.492-1.228 6.325-2.762.498-.438.967-.907 1.405-1.405 1.535-1.833 2.432-3.89 2.762-6.325.074-.54.074-2.364 0-2.904-.33-2.433-1.228-4.49-2.762-6.323a15.658 15.658 0 0 0-1.405-1.405C17.95 1.291 15.871.382 13.47.061c-.26-.036-.638-.05-1.338-.057a25.802 25.802 0 0 0-1.076.003l-.001.001Zm.146 1.275c0 .345.024 1.095.056 1.806.018.348.039.847.048 1.107.031.92.13 3.338.145 3.553l.014.215-.133-.015a.503.503 0 0 1-.152-.032 3.257 3.257 0 0 1-.042-.455c-.089-1.907-.17-3.815-.245-5.723l-.018-.655.083-.012c.044-.006.118-.015.165-.018l.08-.003v.232Zm2.825-.07c.004.002.013.893.021 1.98.012 1.088.027 2.065.035 2.17.01.11.006.205-.009.21a.433.433 0 0 1-.159 0l-.136-.01-.02-.86-.032-1.17c-.025-.524-.045-2.298-.028-2.34.012-.034.044-.037.168-.017.087.018.157.032.16.035v.002ZM7.2 2.2c.019.027.157 1.653.329 3.78.056.724.112 1.385.12 1.468.016.15.013.156-.082.215a.519.519 0 0 1-.119.06c-.01 0-.027-.078-.035-.172-.04-.384-.2-2.237-.313-3.577-.041-.523-.086-1.047-.133-1.57-.014-.13-.011-.142.066-.183.093-.05.147-.059.167-.02Zm8.125.593c.084.03.091.044.11.213.03.295.02 1.706-.012 1.706-.087 0-.264-.1-.277-.156-.016-.31-.022-.62-.018-.93 0-.959-.013-.903.197-.832Zm-5.45.14c0 .08.02.518.043.982L9.98 5.22c.02.514.027.496-.171.508-.098.003-.098.003-.103-.145-.006-.083-.021-.34-.038-.576-.015-.236-.05-.747-.074-1.136a32.494 32.494 0 0 0-.063-.859c-.018-.148-.014-.153.066-.183.059-.02.12-.03.183-.032.094-.003.094-.003.094.136Zm8.187.403.1.041.02.395c.01.215.015.682.01 1.033l-.01.643-.123-.062-.125-.06-.009-.98c-.006-.339-.005-.678.003-1.017.012-.044.012-.044.134.006v.001Zm-5.39.387c.019.018.06 1.45.063 2.175l.002.437-.139-.02c-.05-.005-.099-.012-.147-.022-.01-.006-.098-2.193-.098-2.405V3.67l.152.018a.743.743 0 0 1 .168.035Zm6.797.21c.035.04.041.687.05 4.252.01 4.092.01 4.2-.044 4.2a.197.197 0 0 1-.102-.04c-.044-.032-.05-.39-.066-3.885a476.393 476.393 0 0 0-.035-4.277l-.018-.425.087.062c.05.035.105.086.13.112l-.002.001Zm-2.646.605c.015.012.03.18.032.372.015.652.018 4.65.003 4.663-.006.006-.06-.01-.119-.032l-.105-.044v-5.02l.082.018c.044.012.093.03.107.044Zm-8.146.165c.008.08.024.26.031.407l.047.732c.036.52.03.552-.14.552-.088 0-.1-.01-.11-.097-.03-.174-.133-1.626-.118-1.65a.654.654 0 0 1 .239-.08c.018-.003.04.06.05.136Zm-4.883.752.145 1.455c.05.487.092.9.092.918 0 .035-.227.148-.25.124a96.005 96.005 0 0 1-.31-2.745c0-.07.226-.37.256-.336a6.6 6.6 0 0 1 .069.584h-.002Zm11.573.31.085.05.003.638c.003.348.01.738.01.865.005.266-.027.31-.187.254l-.09-.032v-.254c0-.142-.01-.552-.021-.915l-.018-.655h.068a.41.41 0 0 1 .15.05ZM5.09 6.91l.195 2.125.1 1.09-.115.115-.112.115-.022-.233c-.011-.13-.07-.73-.133-1.34-.062-.606-.15-1.49-.194-1.96l-.083-.85.114-.104c.104-.097.115-.1.136-.047.013.03.063.52.112 1.09h.002Zm-2.212.358c.065.58.236 2.128.385 3.433.147 1.307.286 2.568.313 2.804.023.236.064.593.088.797.04.345.04.37-.006.404-.07.053-.1.047-.1-.015 0-.027-.026-.25-.06-.493l-.338-2.627-.177-1.372a466.58 466.58 0 0 1-.37-2.87c-.051-.4-.084-.76-.075-.797.02-.08.195-.357.213-.34.006.01.065.49.13 1.075l-.002.001ZM1.975 8.54l.183 1.44c.057.435.127.981.16 1.21l.055.411-.062.053c-.034.03-.07.04-.083.03a1.17 1.17 0 0 1-.053-.26c-.017-.13-.126-.888-.244-1.68l-.21-1.446.067-.2a.724.724 0 0 1 .083-.199c.012 0 .056.29.103.64l.002.001Zm16.203-.387c.041.04.047.224.047 1.58v1.53h-.083c-.18 0-.177.043-.189-1.63l-.008-1.527h.093c.05 0 .116.02.14.047Zm-6.46.528c.668.1 1.248.286 1.825.58.372.193.55.326.962.72.613.586.991 1.1 1.345 1.826.516 1.057.717 1.992.972 4.5.114 1.125.265 3.165.297 4 .01.242.03.64.047.885.032.52.072.45-.387.67-.634.307-1.245.52-2.05.717-.986.242-1.623.32-2.597.322l-.708.003.006-.34c0-.185.018-.62.034-.958.09-1.644.072-3.72-.043-4.87-.066-.66-.192-1.464-.263-1.64-.015-.04.053-.072.345-.172.534-.186.998-.42 1.067-.534.127-.218-.1-.53-.39-.53-.05 0-.2.052-.338.114-.662.304-1.987.66-2.752.74a7.793 7.793 0 0 1-1.917-.08c-.31-.055-.865-.265-1.329-.504-.534-.277-.862-.646-.96-1.083-.052-.236-.037-.708.03-.974.1-.346.26-.672.47-.965.84-1.105 2.577-2.064 4.357-2.4a6.632 6.632 0 0 1 1.976-.027h.002Zm9.105.092c.107.044.119.056.119.156.006.806-.012 2.645-.027 2.722-.003.027-.156.03-.22.006-.043-.015-.049-.174-.049-1.476 0-.93.012-1.456.03-1.456.016 0 .084.02.149.047l-.002.001Zm1.29 1.62.105.042-.02 2.444c-.024 3.114-.027 3.205-.14 3.474-.183.44-.174.528-.155-1.402.006-.965.02-1.942.027-2.17.006-.226.012-.867.015-1.425 0-.673.01-1.01.03-1.01.017 0 .08.022.14.045l-.002.002Zm-17.75.733c.018.24.012.263-.074.452l-.093.2-.035-.294c-.056-.472-.056-.493.056-.564.05-.035.103-.06.112-.053.009.006.027.124.035.26Zm-1.824 1.78c.027.242.233 1.848.34 2.636.159 1.22.17 1.393.1 1.32a14.694 14.694 0 0 1-.149-.913c-.46-3.182-.457-3.16-.42-3.185.08-.053.107-.024.128.142h.002Zm2.126 1.35c.018.075.103.875.103.972 0 .083-.106.16-.154.112-.014-.015-.053-.266-.082-.555l-.075-.676-.018-.148.104.118c.049.052.09.112.12.177h.002Zm2.381 1.114c.032.03.053.148.08.466.044.576.05.53-.07.53-.125 0-.122.01-.162-.51-.042-.528-.042-.522.037-.522.038 0 .09.018.115.035v.001Zm2.337.044c.007.03.02.207.033.393.008.186.034.605.059.93.082 1.192.085 1.343.034 1.343-.056 0-.062-.044-.127-.885a70.745 70.745 0 0 0-.096-1.22c-.027-.32-.044-.59-.035-.595.032-.035.117-.01.133.035Zm-5.547.567c.018.027.13.97.268 2.26.04.39.083.765.09.836l.016.127-.074-.047a.153.153 0 0 1-.077-.145c0-.186-.127-1.41-.224-2.16-.055-.425-.1-.8-.1-.835 0-.062.07-.086.1-.035Zm17.032 1.234-.02 1.234-.075.11c-.168.247-.16.294-.15-1.087l.005-1.266.11-.112a.573.573 0 0 1 .13-.11c.008 0 .008.556 0 1.232Zm-2.73 1.956c.014 1.715.011 1.848-.036 1.9-.03.033-.055.054-.064.045-.02-.024-.05-3.763-.027-3.784.012-.012.04-.018.067-.015.038.01.047.218.06 1.853v.001Zm-9.64-1.174c.022.183.095 1.06.125 1.473.018.277.018.286-.047.307-.036.012-.078.01-.09-.006-.02-.02-.086-.676-.165-1.685l-.02-.242h.09c.086 0 .091.006.107.153Zm-2.32 1.033c.021.02.035.094.035.168 0 .077.035.475.074.888.112 1.13.12 1.284.07 1.254-.075-.044-.144-.112-.13-.13a2.021 2.021 0 0 0-.03-.328 14.42 14.42 0 0 1-.058-.62 19.043 19.043 0 0 0-.062-.694c-.056-.516-.053-.576.013-.576.03 0 .067.015.088.035v.003Zm1.396 1.986c.01.065.027.307.038.537.02.443.013.475-.11.384-.034-.027-.058-.14-.092-.475-.063-.608-.066-.584.05-.573.085.01.096.02.114.127ZM6.52 10.094c-.307.133-.331.55-.041.697.21.106.421.056.53-.127a.392.392 0 0 0-.49-.57Zm2 .283a.454.454 0 0 0 0 .767c.28.168.644-.053.644-.39 0-.325-.373-.543-.643-.378l-.002.001Z" fill="#fff"/></svg>
