<svg width="24" height="24" fill="none" xmlns="http://www.w3.org/2000/svg"><g clip-path="url(#a)"><path d="M12.035 0C5.403-.02 0 5.37 0 11.992h4.638c0-4.923 4.882-8.73 10.064-6.855a6.95 6.95 0 0 1 4.147 4.148c1.889 5.177-1.924 10.055-6.84 10.064v-4.61H7.386v4.623h4.61V24c7.86 0 13.967-7.588 11.397-15.83-1.115-3.59-3.985-6.446-7.575-7.575A12.8 12.8 0 0 0 12.034 0h.001Zm-4.65 19.362H3.823v3.564h3.562v-3.564Zm-3.563 0v-2.978H.845v2.978h2.977Z" fill="#0080FF"/></g><defs><clipPath id="a"><path fill="#fff" d="M0 0h24v24H0z"/></clipPath></defs></svg>
