<svg width="24" height="24" fill="none" xmlns="http://www.w3.org/2000/svg"><path d="m7.305 9.056 4.552-2.63a.373.373 0 0 1 .37 0l4.552 2.63a.37.37 0 0 1 .183.319v5.26a.37.37 0 0 1-.183.318l-4.552 2.63a.373.373 0 0 1-.37 0l-4.552-2.635a.37.37 0 0 1-.182-.318V9.375a.37.37 0 0 1 .182-.319Z" fill="#8080F2"/><path d="M23.848 11.573 18.4 2.095c-.197-.342-.563-.595-.961-.595H6.55c-.393 0-.759.253-.96.595L.148 11.55a1.127 1.127 0 0 0 0 1.116l5.447 9.398c.196.342.562.516.96.516H17.45c.394 0 .76-.17.961-.511l5.447-9.413c.192-.342.192-.74-.01-1.083Zm-4.51 4.557c0 .14-.084.267-.206.337l-6.938 4.003a.394.394 0 0 1-.393 0l-6.942-4.003a.397.397 0 0 1-.207-.337V8.123c0-.14.085-.267.207-.337l6.937-4.003a.394.394 0 0 1 .394 0l6.942 4.003c.122.07.206.197.206.337v8.007Z" fill="#4B32C3"/></svg>
