<svg width="24" height="24" fill="none" xmlns="http://www.w3.org/2000/svg"><path clip-rule="evenodd" d="m19.404 5.793-3.142-3.142A2.223 2.223 0 0 0 14.692 2h-7.97A2.222 2.222 0 0 0 4.5 4.222v15.556A2.22 2.22 0 0 0 6.722 22h11.111a2.222 2.222 0 0 0 2.223-2.222V7.364a2.22 2.22 0 0 0-.652-1.57v0z" stroke="#fff" stroke-width="1.25" stroke-linecap="round" stroke-linejoin="round"/><path d="M20.056 7.556H15.61a1.112 1.112 0 0 1-1.11-1.112V2" stroke="#fff" stroke-width="1.25" stroke-linecap="round" stroke-linejoin="round"/><path d="M7.833 10.889H14.5m-6.667 3.333H14.5m-6.667 3.334h4.811" stroke="#fff" stroke-width="1.1" stroke-linecap="round" stroke-linejoin="round"/></svg>
