<svg width="24" height="24" fill="none" xmlns="http://www.w3.org/2000/svg"><g clip-path="url(#a)"><path d="M12.013 0 1.716 6.017v12L12.013 24l10.286-6.086.01-11.828L12.014 0Zm9.39 17.4-9.39 5.554-9.396-5.461V6.538l9.396-5.492 9.4 5.554-.01 10.8Z" fill="#fff"/><path d="m20.215 9.99-4.82 2.836-.002 6.794 4.84-2.85-.018-6.78Z" fill="#1EA8FF"/><path d="m18.255 8.831 1.96 1.158-4.82 2.837-.002 6.794-2.243-1.303.018-6.424 5.087-3.062Z" fill="#50BFFF"/><path d="m17.595 7.157.001 1.257-5.23 3.156.005 6.942-1.217.715-.003-8.208 6.444-3.862Z" fill="#97FF27"/><path d="m15.448 5.89 2.147 1.267-6.444 3.862.003 8.208-2.403-1.398-.005-8.046 6.702-3.894Z" fill="#C2FF72"/><path d="M14.778 3.948v1.515l-6.87 4.029v8.655l-1.202.7.023-10.038 8.05-4.861Z" fill="#FF274B"/><path d="M12.15 2.386 3.896 7.195l-.001 10.009 2.827 1.643.007-10.038 8.057-4.861-2.636-1.562Z" fill="#FF5C77"/></g><defs><clipPath id="a"><path fill="#fff" d="M0 0h24v24H0z"/></clipPath></defs></svg>
