<svg width="24" height="24" fill="none" xmlns="http://www.w3.org/2000/svg"><path d="M22.804 18.731a1 1 0 0 1-.801 1.599H1.869a1 1 0 0 1-.833-1.555L8.12 8.149a1 1 0 0 1 1.622-.058l3.745 4.826a1 1 0 0 0 1.551.036l1.027-1.203a1 1 0 0 1 1.562.051l5.177 6.93Zm-18.98-1.463a1 1 0 0 0 .832 1.555H19a1 1 0 0 0 .804-1.595l-2.254-3.045a1 1 0 0 0-1.564-.055l-1.023 1.198a1 1 0 0 1-1.55-.036l-3.595-4.637a1 1 0 0 0-1.623.058l-4.37 6.557Zm15.653-8.24a3.023 3.023 0 0 1-3.014-3.014A3.023 3.023 0 0 1 19.477 3a3.023 3.023 0 0 1 3.014 3.014 3.023 3.023 0 0 1-3.014 3.014Zm0-4.521c-.829 0-1.507.678-1.507 1.507 0 .829.678 1.507 1.507 1.507.829 0 1.507-.678 1.507-1.507 0-.829-.678-1.507-1.507-1.507Z" fill="#00FFC2"/></svg>
