<svg width="24" height="24" fill="none" xmlns="http://www.w3.org/2000/svg"><rect x="1.5" y="1.5" width="21" height="21" rx="3.5" stroke="#F0F04F"/><path d="M20.438 17.087c-.169-.976-.853-1.796-2.88-2.56-.705-.302-1.49-.517-1.724-1.013-.083-.29-.094-.452-.041-.627.15-.567.879-.744 1.456-.582.372.116.724.383.936.808.993-.598.99-.594 1.684-1.005-.254-.366-.39-.535-.555-.691-.597-.62-1.411-.94-2.712-.916l-.678.082c-.65.152-1.268.47-1.631.895-1.09 1.149-.779 3.16.546 3.988 1.306.912 3.224 1.119 3.469 1.971.238 1.043-.825 1.381-1.881 1.261-.778-.15-1.211-.518-1.68-1.188-.861.464-.861.464-1.747.938.21.427.43.62.783.99 1.667 1.573 5.837 1.495 6.585-.884.03-.082.232-.627.07-1.467ZM12.05 10.5H9.868l-.009 5.239c0 1.114.062 2.135-.133 2.448-.319.616-1.146.54-1.523.42-.384-.175-.579-.424-.805-.776-.062-.1-.108-.179-.124-.185L5.5 18.655c.295.562.73 1.05 1.286 1.367.832.464 1.949.606 3.118.357.76-.206 1.417-.632 1.76-1.281.497-.85.39-1.88.386-3.02.011-1.857 0-3.714 0-5.578Z" fill="#F0F04F"/></svg>
