<svg width="24" height="24" fill="none" xmlns="http://www.w3.org/2000/svg"><path d="M8.7 18.56s-.916.534.653.714c1.902.217 2.874.186 4.97-.21 0 0 .551.345 1.32.644-4.698 2.014-10.633-.116-6.942-1.147ZM8.127 15.933s-1.03.761.542.924c2.031.21 3.636.227 6.412-.308 0 0 .384.39.988.602-5.68 1.661-12.008.131-7.942-1.218Z" fill="#5382A1"/><path d="M12.966 11.476c1.158 1.332-.304 2.532-.304 2.532s2.94-1.518 1.59-3.418c-1.261-1.772-2.228-2.652 3.006-5.688 0 0-8.216 2.052-4.292 6.574Z" fill="#E76F00"/><path d="M19.18 20.504s.679.56-.747.992c-2.712.822-11.287 1.07-13.67.033-.856-.373.75-.89 1.255-.998.527-.115.828-.093.828-.093-.952-.671-6.156 1.317-2.643 1.886 9.58 1.554 17.462-.7 14.977-1.82ZM9.142 13.21s-4.362 1.036-1.545 1.413c1.19.159 3.56.123 5.77-.062 1.805-.152 3.617-.476 3.617-.476s-.636.272-1.097.587c-4.429 1.165-12.986.623-10.523-.569 2.084-1.007 3.778-.893 3.778-.893ZM16.966 17.584c4.503-2.34 2.421-4.588.968-4.285a3.377 3.377 0 0 0-.515.138s.133-.207.385-.297c2.875-1.01 5.086 2.981-.928 4.562 0 0 .07-.062.09-.118Z" fill="#5382A1"/><path d="M14.252 0s2.493 2.495-2.365 6.33c-3.897 3.078-.889 4.832-.002 6.836-2.274-2.052-3.943-3.858-2.824-5.54C10.705 5.16 15.258 3.963 14.251 0Z" fill="#E76F00"/><path d="M9.584 23.925c4.322.276 10.96-.154 11.117-2.199 0 0-.303.775-3.572 1.39-3.69.695-8.24.614-10.938.17 0 0 .553.456 3.393.639Z" fill="#5382A1"/></svg>
