<svg width="24" height="24" fill="none" xmlns="http://www.w3.org/2000/svg"><path d="M12.895.577a2 2 0 0 0-2 0L2.5 5.423a2 2 0 0 0-1 1.732v9.69a2 2 0 0 0 1 1.732l8.395 4.846a2 2 0 0 0 2 0l8.395-4.846a2 2 0 0 0 1-1.732v-9.69a2 2 0 0 0-1-1.732L12.895.577Zm5 16.013c0 .705-.646 1.29-1.529 1.29-.631 0-1.351-.255-1.801-.81l-6-7.141v6.66c0 .721-.57 1.29-1.274 1.29h-.076c-.721 0-1.29-.6-1.29-1.29V7.41c0-.705.63-1.29 1.5-1.29.646 0 1.38.255 1.83.81l5.97 7.141V7.41c0-.721.6-1.29 1.29-1.29h.075c.72 0 1.29.6 1.29 1.29v9.18h.015Z" fill="#009639"/></svg>
