<svg width="24" height="24" fill="none" xmlns="http://www.w3.org/2000/svg"><path clip-rule="evenodd" d="M3 16.041V7.959c0-.715.381-1.375 1-1.732l7-4.041a2.001 2.001 0 0 1 2 0l7 4.041a2 2 0 0 1 1 1.732v8.083c0 .715-.381 1.375-1 1.732l-7 4.041a2.001 2.001 0 0 1-2 0l-7-4.041a2.001 2.001 0 0 1-1-1.733Z" stroke="#fff" stroke-width="1.25" stroke-linecap="round" stroke-linejoin="round"/><path d="M16.49 12.86V9.396L7.5 4.206M9.04 17 6 15.24M12 12v10.08" stroke="#fff" stroke-width="1.25" stroke-linecap="round" stroke-linejoin="round"/><path d="M3.268 6.959 12 12l8.732-5.041" stroke="#fff" stroke-width="1.25" stroke-linecap="round" stroke-linejoin="round"/></svg>
