<svg width="24" height="24" fill="none" xmlns="http://www.w3.org/2000/svg"><g clip-path="url(#a)"><path d="M23.63 15.011c-.71-.745-2.166-1.17-4.224-1.17-1.1 0-2.377.106-3.76.354a19.449 19.449 0 0 1-2.308-2.661c-.532-.71-.994-1.49-1.42-2.236.817-2.484 1.207-4.507 1.207-5.962 0-1.632-.603-3.336-2.342-3.336-.532 0-1.065.32-1.349.781-.78 1.384-.425 4.4.923 7.381a60.253 60.253 0 0 1-1.703 4.507c-.568 1.349-1.207 2.733-1.917 4.01C2.834 18.241.314 20.051.03 21.469c-.106.533.071 1.03.462 1.42.142.107.64.533 1.49.533 2.59 0 5.323-4.188 6.707-6.707 1.065-.355 2.13-.71 3.194-.994a34.954 34.954 0 0 1 3.407-.745c2.732 2.448 5.145 2.839 6.352 2.839 1.49 0 2.023-.604 2.2-1.1.32-.64.106-1.349-.213-1.704h.001Zm-1.42 1.03c-.107.532-.64.887-1.384.887-.213 0-.39-.036-.604-.071-1.348-.32-2.626-.994-3.903-2.059.985-.166 1.982-.25 2.98-.248.746 0 1.385.035 1.81.142.497.106 1.278.426 1.1 1.348l.001.001Zm-7.524-1.668c-.99.186-1.972.41-2.945.674-.848.22-1.688.469-2.52.745a40.02 40.02 0 0 0 1.207-2.555c.426-.994.78-2.023 1.136-2.981.354.603.745 1.207 1.135 1.739.638.813 1.3 1.606 1.987 2.378ZM10.038 1.171a.769.769 0 0 1 .674-.425c.745 0 .887.851.887 1.526 0 1.135-.355 2.874-.958 4.861-1.03-2.768-1.1-5.074-.603-5.962ZM6.134 17.708c-1.81 2.981-3.549 4.826-4.613 4.826a.872.872 0 0 1-.532-.177c-.213-.213-.32-.461-.249-.745.213-1.065 2.271-2.555 5.394-3.904Z" fill="#EC1C24"/></g><defs><clipPath id="a"><path fill="#fff" d="M0 0h24v24H0z"/></clipPath></defs></svg>
