<svg width="24" height="24" fill="none" xmlns="http://www.w3.org/2000/svg"><path d="M8.857 23.429a.571.571 0 0 1-.571.571H2.572a.571.571 0 1 1 0-1.143h5.713c.316 0 .572.256.572.572Zm-.571-2.859H7.143a.571.571 0 1 0 0 1.143h1.143a.571.571 0 1 0 0-1.143Zm-5.714 1.143h2.284a.571.571 0 1 0 0-1.143H2.572a.571.571 0 1 0 0 1.143Zm5.714-3.427H2.572a.571.571 0 1 0 0 1.143h5.713a.571.571 0 1 0 0-1.143Zm8-2.286H5.998a.571.571 0 1 0 0 1.143h10.286a.571.571 0 1 0 0-1.143ZM2.57 17.143h1.143a.571.571 0 1 0 0-1.143H2.572a.571.571 0 1 0 0 1.143Zm17.143-3.429h-3.428a.571.571 0 1 0 0 1.143h3.428a.571.571 0 1 0 0-1.143ZM9.43 14.857h4.57a.571.571 0 1 0 0-1.143H9.43a.571.571 0 1 0 0 1.143Zm-6.857 0h4.57a.571.571 0 1 0 0-1.143h-4.57a.571.571 0 1 0 0 1.143Zm18.284-3.427h-9.14a.572.572 0 0 0 0 1.142h9.142a.572.572 0 0 0 0-1.142h-.003ZM9.998 12a.571.571 0 0 0-.57-.571h-3.43a.571.571 0 0 0 0 1.142h3.43a.571.571 0 0 0 .57-.571Zm-7.428.571h1.143a.571.571 0 0 0 0-1.142H2.572a.571.571 0 0 0 0 1.142ZM22 9.143h-5.713a.571.571 0 1 0 0 1.143h5.713a.571.571 0 1 0 0-1.143ZM2.573 10.286h5.714a.571.571 0 1 0 0-1.143H2.572a.571.571 0 0 0 0 1.143Zm13.142-2.857a.57.57 0 0 0 .571.571H22a.571.571 0 1 0 0-1.143h-5.715a.57.57 0 0 0-.57.572Zm-8.572-.572a.571.571 0 0 0 0 1.143h1.144a.571.571 0 0 0 0-1.143H7.143ZM2.572 8h2.284a.571.571 0 0 0 0-1.143H2.572a.571.571 0 0 0 0 1.143Zm16.57-2.857c0 .315.256.571.573.571h1.142a.571.571 0 1 0 0-1.143h-1.142a.571.571 0 0 0-.572.572Zm-1.142 0a.57.57 0 0 0-.572-.572h-4.573a.571.571 0 1 0 0 1.143h4.572A.571.571 0 0 0 18 5.143Zm-15.428.571h8a.571.571 0 1 0 0-1.143h-8a.571.571 0 0 0 0 1.143Zm5.143-2.857c0 .316.255.572.57.572h11.43a.571.571 0 1 0 0-1.143H8.285a.571.571 0 0 0-.57.571Zm-5.144.572H6a.571.571 0 0 0 0-1.143H2.57a.571.571 0 0 0 0 1.143Zm0-2.286h13.714a.571.571 0 1 0 0-1.143H2.572a.572.572 0 0 0 0 1.143Z" fill="#1E9EA6"/></svg>
