<svg width="24" height="24" fill="none" xmlns="http://www.w3.org/2000/svg"><path d="M11.869 1c-.907.004-1.774.08-2.536.214-2.245.393-2.653 1.214-2.653 2.729v2h5.306v.667H4.69c-1.543 0-2.893.916-3.315 2.66-.488 2-.51 3.247 0 5.335.377 1.553 1.278 2.66 2.82 2.66h1.824v-2.397c0-1.733 1.516-3.26 3.315-3.26h5.3a2.658 2.658 0 0 0 2.654-2.668V3.943c0-1.423-1.213-2.491-2.653-2.729A16.73 16.73 0 0 0 11.869 1ZM8.999 2.61a1.001 1.001 0 0 1 0 2 1 1 0 0 1 0-2Z" fill="url(#a)"/><path d="M17.949 6.61v2.33c0 1.807-1.55 3.328-3.315 3.328h-5.3c-1.453 0-2.654 1.229-2.654 2.667v4.998c0 1.422 1.25 2.259 2.653 2.667 1.68.488 3.29.577 5.3 0 1.337-.383 2.654-1.153 2.654-2.667v-2h-5.3v-.667H19.94c1.542 0 2.117-1.064 2.653-2.661.554-1.644.53-3.225 0-5.334-.38-1.519-1.109-2.661-2.653-2.661H17.95Zm-2.981 12.656a1 1 0 0 1 0 2 1.001 1.001 0 0 1 0-2Z" fill="url(#b)"/><defs><linearGradient id="a" x1="1" y1="1" x2="13.123" y2="11.444" gradientUnits="userSpaceOnUse"><stop stop-color="#5A9FD4"/><stop offset="1" stop-color="#306998"/></linearGradient><linearGradient id="b" x1="14.84" y1="20.095" x2="10.514" y2="13.966" gradientUnits="userSpaceOnUse"><stop stop-color="#FFD43B"/><stop offset="1" stop-color="#FFE873"/></linearGradient></defs></svg>
