<svg width="24" height="24" fill="none" xmlns="http://www.w3.org/2000/svg"><path d="M5 14.77v1.845c0 .312 6.714.833 11.088 1.847 2.114-.49 3.681-1.095 3.681-1.847V14.77c0-.751-1.567-1.356-3.68-1.846C11.713 13.937 5 14.458 5 14.77Z" fill="url(#a)"/><path d="M5 7.385V9.23c0 .311 6.714.832 11.088 1.846 2.114-.49 3.681-1.094 3.681-1.846V7.385c0-.752-1.567-1.357-3.68-1.847C11.713 6.552 5 7.074 5 7.385Z" fill="url(#b)"/><path d="M5 11.077v5.538c0-.461 14.77-1.384 14.77-3.692V7.385C19.77 9.692 5 10.615 5 11.077Z" fill="url(#c)"/><path d="M5 3.692v5.539c0-.462 14.77-1.385 14.77-3.693V0C19.77 2.308 5 3.23 5 3.692Z" fill="url(#d)"/><path d="M5 18.462V24c0-.462 14.77-1.385 14.77-3.692v-5.539C19.77 17.077 5 18 5 18.462Z" fill="url(#e)"/><defs><linearGradient id="a" x1="5" y1="15.692" x2="19.769" y2="15.692" gradientUnits="userSpaceOnUse"><stop stop-color="#4F4F4F"/><stop offset="1"/></linearGradient><linearGradient id="b" x1="5" y1="8.308" x2="19.769" y2="8.308" gradientUnits="userSpaceOnUse"><stop stop-color="#4F4F4F"/><stop offset="1"/></linearGradient><linearGradient id="c" x1="5" y1="12" x2="19.769" y2="12" gradientUnits="userSpaceOnUse"><stop stop-color="#C40000"/><stop offset="1" stop-color="red"/></linearGradient><linearGradient id="d" x1="5" y1="4.615" x2="19.769" y2="4.615" gradientUnits="userSpaceOnUse"><stop stop-color="#C40000"/><stop offset="1" stop-color="red"/></linearGradient><linearGradient id="e" x1="5" y1="19.385" x2="19.769" y2="19.385" gradientUnits="userSpaceOnUse"><stop stop-color="#C40000"/><stop offset="1" stop-color="red"/></linearGradient></defs></svg>
