<svg width="24" height="24" fill="none" xmlns="http://www.w3.org/2000/svg"><path d="M19.431 5.291a.218.218 0 0 0-.195-.181c-.077-.013-1.776-.13-1.776-.13s-1.18-1.167-1.296-1.296c-.13-.13-.376-.091-.48-.065-.012 0-.259.077-.66.207-.377-1.128-1.077-2.165-2.295-2.165h-.104c-.35-.454-.778-.661-1.14-.661-2.84.013-4.188 3.552-4.616 5.354-1.102.337-1.88.584-1.984.61-.609.194-.635.207-.713.79-.064.454-1.672 12.9-1.672 12.9L15.036 23l6.794-1.465c0-.013-2.386-16.127-2.399-16.244Zm-5.095-1.244c-.31.103-.674.207-1.063.324v-.234c.01-.58-.077-1.16-.26-1.71.636.09 1.064.803 1.323 1.62ZM12.25 2.569c.169.44.285 1.063.285 1.906v.116c-.687.208-1.439.44-2.19.674.427-1.607 1.218-2.398 1.905-2.696Zm-.843-.791c.13.003.256.043.363.117-.908.427-1.88 1.503-2.294 3.655a400.4 400.4 0 0 0-1.737.532c.492-1.634 1.633-4.304 3.668-4.304Z" fill="#95BF47"/><path d="M19.237 5.11c-.078-.013-1.776-.13-1.776-.13s-1.18-1.167-1.297-1.296a.256.256 0 0 0-.181-.078L15.036 23l6.794-1.465S19.444 5.408 19.43 5.305a.233.233 0 0 0-.194-.195Z" fill="#5E8E3E"/><path d="m12.79 8.667-.842 2.49a3.905 3.905 0 0 0-1.633-.39c-1.322 0-1.387.83-1.387 1.037 0 1.14 2.968 1.569 2.968 4.24 0 2.1-1.335 3.448-3.124 3.448-2.152 0-3.254-1.335-3.254-1.335l.57-1.906s1.128.972 2.088.972a.85.85 0 0 0 .88-.855c0-1.491-2.436-1.556-2.436-3.993 0-2.049 1.478-4.045 4.447-4.045 1.166.013 1.724.337 1.724.337Z" fill="#fff"/></svg>
