<svg width="24" height="24" fill="none" xmlns="http://www.w3.org/2000/svg"><path d="M21.002 17.225h-8.715c-2.107 0-3.288 1.475-3.288 3.044 0 1.448 1.001 3.043 3.288 3.043h8.715v-6.087Z" fill="#669DF3"/><path d="M21.002 23.308c1.656 0 2.998-1.363 2.998-3.044s-1.342-3.044-2.998-3.044c-1.656 0-2.998 1.363-2.998 3.044 0 1.68 1.342 3.044 2.998 3.044Z" fill="#1A73E8"/><path d="M12.003 9.11H3.288C1.181 9.11 0 10.585 0 12.154c0 1.448 1.001 3.044 3.288 3.044h8.715V9.11Z" fill="#669DF3"/><path d="M12.003 15.198c1.656 0 2.998-1.363 2.998-3.044 0-1.68-1.342-3.043-2.998-3.043-1.656 0-2.998 1.362-2.998 3.043s1.342 3.044 2.998 3.044Z" fill="#1A73E8"/><path d="M21.002 1h-8.715C10.18 1 8.999 2.475 8.999 4.044c0 1.447 1.001 3.043 3.288 3.043h8.715V1Z" fill="#669DF3"/><path d="M21.002 7.087C22.658 7.087 24 5.724 24 4.044 24 2.363 22.658 1 21.002 1c-1.656 0-2.998 1.363-2.998 3.044 0 1.68 1.342 3.043 2.998 3.043Z" fill="#1A73E8"/></svg>
