<svg width="24" height="24" fill="none" xmlns="http://www.w3.org/2000/svg"><path d="M12.721 0 2.262 6.038l-.254-.152L2 5.894v.652l.576-.33-.254-.144L12.78.034 12.721 0Zm1.677.965L3.939 7.004l-.212-.128-1.727 1v.601l2.252-1.296-.211-.118 10.458-6.038-.101-.06Zm1.677.966L5.615 7.969l-.169-.102L2 9.857v.56l3.93-2.27-.17-.093 10.45-6.039-.135-.084Zm1.668.957-6.512 3.777-.33-.186-1.864 1.075v.381L7.293 8.943l-.127-.076L2 11.839v.517l5.606-3.244-.127-.076 1.558-.898v.398l1.152.66-1.212.704-.085-.051-6.885 3.98v.458l7.283-4.2-.084-.052 1.21-.703 1.178.686-2.55 1.465v.271L2.009 15.82v.407l7.038-4.067v.313l1.092.627-8.13 4.7v.178l.161.093 8.282-4.776 1.127.652-2.532 1.448v.33l-5.471 3.16.27.151 5.2-3.006v.381l3.414-1.973 1.024.593-1.008.584v.102l-7.19 4.15.23.126 6.951-4.013v.102l1.414-.813 1.118.643-1.82 1.059.16.093-.864.5v.144l-5.47 3.159.186.11 5.284-3.049v.144l1.305-.754.254.153 1.82-1.05v-.305l7.08-4.082v-.517l-7.071 4.09v-.186l-1.118-.643 8.19-4.726v-.457l-8.58 4.954-1.024-.593 2.532-1.473v-.34l7.071-4.072v-.407l-7.071 4.082v-.254l-1.143-.66 8.214-4.743-.008-.203-.153-.085-8.375 4.827-1.084-.618 2.54-1.474v-.372l5.505-3.176-.271-.152-5.242 3.023v-.313L12.442 9.51l-1.178-.686 8.376-4.835-.229-.127-8.358 4.835-1.144-.66 1.855-1.076-.347-.203 6.512-3.76-.186-.11ZM12.45 10.5l1.084.627-1.211.703-1.33.762-1.084-.618L12.45 10.5Zm1.389.813 1.152.66-2.558 1.466-1.135-.652 1.169-.677 1.372-.797Zm9.087 2.134-10.459 6.039v.195l-3.743 2.16.135.084 3.608-2.083v.195l10.459-6.03v-.56Zm0 1.931-10.459 6.039v.246l-2.032 1.177.101.05 1.931-1.108v.237l10.459-6.03v-.611Zm0 1.94-10.459 6.029v.296l-.313.187.059.025.254-.144V24l10.459-6.03v-.652Z" fill="#fff"/></svg>
