<svg width="24" height="24" fill="none" xmlns="http://www.w3.org/2000/svg"><path d="M9.666 8.085c-.078.427-.142.884-.083 1.32.215 1.576 1.347 2.686 2.314 3.811.482.562.985 1.153 1.223 1.882.367 1.123-.227 2.227-.89 3.079-.116.15-.237.297-.363.44-.24.271-.633.607-.406 1.026.138.255.469.342.71.196.117-.072.207-.194.302-.294.22-.232.424-.48.62-.733.19-.248.363-.512.523-.782.085-.144.149-.31.253-.44.244-.304.54-.573.807-.855l1.577-1.662 1.183-1.246c.172-.182.43-.376.533-.61.191.093.406.128.603.024.492-.26.428-1.01-.07-1.21-.326-.132-.71.078-.804.428a.67.67 0 0 0-.016.293c.013.079.051.168.014.244-.068.139-.226.258-.33.367l-.742.782-2.458 2.59c.055-.434.13-.852.088-1.295-.117-1.233-.939-2.225-1.693-3.103-.56-.652-1.197-1.275-1.603-2.053-.24-.46-.41-.956-.36-1.49.11-1.19.956-2.083 1.662-2.932.29-.35.145-.941-.344-.952-.315-.007-.541.308-.729.536-.298.363-.587.726-.844 1.124-.135.211-.23.464-.383.66-.39.498-.88.936-1.314 1.393l-2.598 2.736c-.06.063-.126.158-.208.187-.084.03-.193-.026-.279-.03a.613.613 0 0 0-.556.308c-.362.614.392 1.294.925.86a.686.686 0 0 0 .23-.543c-.007-.114-.076-.237-.01-.342.133-.208.357-.385.525-.562l1.066-1.124 1.925-2.028Z" fill="#fff"/><path d="M16.525 1.484 2.94 4.87a2 2 0 0 0-1.457 2.424L4.87 20.88a2 2 0 0 0 2.424 1.457L20.88 18.95a2 2 0 0 0 1.457-2.424L18.95 2.94a2 2 0 0 0-2.424-1.457Z" stroke="#FF186B" stroke-width="1.25"/></svg>
