<svg width="24" height="24" fill="none" xmlns="http://www.w3.org/2000/svg"><path d="M22.102 15.783C23.437 10.49 20.222 4.288 14.757 1c2.426 3.281 3.4 7.175 2.551 10.647-.059.302-.184.611-.302.914-1.046-.723-5.892-3.71-11.719-9.608-.184-.184 3.157 4.748 6.86 8.635-1.763-1.033-6.682-4.564-9.78-7.418.362.611.849 1.216 1.335 1.887 2.611 3.347 5.952 7.359 10.022 10.463-2.854 1.762-6.859 1.887-10.93 0C1.763 16.092.915 15.487 0 14.816c1.703 2.677 4.314 5.05 7.47 6.386 3.769 1.644 7.622 1.657 10.746-.243 1.335-.671 4.005-1.401 5.465 1.4.302.79 1.032-2.86-1.704-6.201.066-.132.066-.25.125-.375Z" fill="url(#a)"/><defs><linearGradient id="a" x1="12.001" y1="1.002" x2="12.001" y2="22.462" gradientUnits="userSpaceOnUse"><stop stop-color="#F88A36"/><stop offset="1" stop-color="#FD2020"/></linearGradient></defs></svg>
