<svg width="24" height="24" fill="none" xmlns="http://www.w3.org/2000/svg"><rect x="1" y="1" width="22" height="22" rx="4" fill="#1A73E8"/><path d="M18.047 10.585v-.003c.512.119.977.387 1.337.77.198.206.37.436.513.684 0 .027-.923.651-1.486 1-.02.014-.102-.075-.193-.21a1.212 1.212 0 0 0-1.004-.604c-.648-.044-1.065.296-1.062.855a.784.784 0 0 0 .093.4c.142.296.407.472 1.238.831 1.53.659 2.185 1.093 2.592 1.71.455.684.556 1.79.248 2.607-.342.889-1.18 1.492-2.365 1.692a6.55 6.55 0 0 1-1.628-.017 3.933 3.933 0 0 1-2.175-1.133c-.197-.218-.58-.784-.556-.825.063-.046.128-.088.197-.124l.792-.438.613-.356.129.19c.216.31.492.573.81.776.684.36 1.618.31 2.08-.106a.929.929 0 0 0 .118-1.183c-.171-.238-.513-.438-1.47-.855-1.102-.476-1.578-.77-2.012-1.238a2.818 2.818 0 0 1-.587-1.07 4.276 4.276 0 0 1-.037-1.367c.227-1.066 1.026-1.81 2.192-2.03a5.412 5.412 0 0 1 1.623.044Zm-5.028.012.01.881v.876h-2.775v7.905H8.286v-7.907H5.504v-.855a8.41 8.41 0 0 1 .02-.884c.008-.009.565-.013 1.424-.014h.336l.178-.001h5.557Z" fill="#fff"/></svg>
