<svg width="24" height="24" fill="none" xmlns="http://www.w3.org/2000/svg"><path d="m22.231 3.33-4.556-2.193a1.377 1.377 0 0 0-1.572.267l-14.916 13.6a.921.921 0 0 0 .001 1.362l1.218 1.108a.921.921 0 0 0 1.177.052L21.546 3.9a.915.915 0 0 1 1.468.729v-.053c0-.531-.305-1.015-.783-1.245Z" fill="#0065A9"/><path d="m22.231 20.67-4.556 2.193a1.378 1.378 0 0 1-1.572-.267L1.187 8.996a.921.921 0 0 1 .001-1.362l1.218-1.108a.921.921 0 0 1 1.177-.052L21.546 20.1a.915.915 0 0 0 1.468-.729v.053c0 .531-.305 1.015-.783 1.245Z" fill="#007ACC"/><path d="M17.675 22.864a1.378 1.378 0 0 1-1.572-.268.81.81 0 0 0 1.382-.572V1.976a.81.81 0 0 0-1.382-.572 1.378 1.378 0 0 1 1.572-.268l4.556 2.191c.478.23.783.714.783 1.246v14.854c0 .532-.305 1.016-.783 1.246l-4.556 2.19Z" fill="#1F9CF0"/><path style="mix-blend-mode:overlay" opacity=".25" fill-rule="evenodd" clip-rule="evenodd" d="M16.568 22.906c.348.136.745.127 1.097-.042l4.553-2.191c.478-.23.782-.714.782-1.245V4.572c0-.531-.304-1.016-.782-1.246l-4.553-2.19a1.377 1.377 0 0 0-1.571.267L7.378 9.356 3.58 6.474a.92.92 0 0 0-1.176.052L1.188 7.634a.922.922 0 0 0-.001 1.362L4.479 12l-3.292 3.004a.922.922 0 0 0 0 1.362l1.218 1.108a.92.92 0 0 0 1.176.052l3.797-2.881 8.716 7.951c.138.138.3.242.474.31Zm.907-15.926L10.862 12l6.613 5.02V6.98Z" fill="url(#a)"/><defs><linearGradient id="a" x1="11.943" y1="1" x2="11.943" y2="23" gradientUnits="userSpaceOnUse"><stop stop-color="#fff"/><stop offset="1" stop-color="#fff" stop-opacity="0"/></linearGradient></defs></svg>
