<svg width="24" height="24" fill="none" xmlns="http://www.w3.org/2000/svg"><path d="M21.935 18.227 12.458 23.5v-4.107l5.905-3.195 3.572 2.03Zm.648-.577V6.622l-3.468 1.969v7.088l3.468 1.97Zm-20.435.577 9.478 5.273v-4.107L5.72 16.198l-3.573 2.03ZM1.5 17.65V6.622l3.468 1.969v7.088L1.5 17.649Zm.406-11.741L11.626.5v3.97L5.399 7.84l-.048.026L1.906 5.91Zm20.272 0L12.458.5v3.97l6.226 3.37.048.026 3.446-1.957Z" fill="#8ED6FB"/><path d="M11.626 18.459 5.8 15.309V9.066l5.826 3.309v6.084Zm.832 0 5.825-3.15V9.066l-5.825 3.309v6.084ZM6.195 8.344l5.848-3.164 5.848 3.164-5.848 3.322-5.848-3.322Z" fill="#1C78C0"/></svg>
