<svg width="24" height="24" fill="none" xmlns="http://www.w3.org/2000/svg"><path d="M1.752 11.855c1.023-.097 1.566-.608 1.566-1.776V8.156c0-1.177.381-1.598 1.663-1.598h.325V5h-.739c-2.166 0-3.269.722-3.269 2.831v1.55c0 1.095-.243 1.598-1.298 1.598v1.98c1.055 0 1.29.494 1.298 1.598v1.728c.008 2.133 1.103 2.904 3.27 2.904h.746v-1.558h-.325c-1.29 0-1.663-.43-1.663-1.606l-.008-2.052c0-1.169-.543-1.81-1.566-1.899v-.219ZM6.199 15.457c0 .82.633 1.363 1.411 1.363.804 0 1.436-.543 1.436-1.363 0-.835-.624-1.395-1.436-1.395-.787 0-1.411.543-1.411 1.395ZM10.58 15.457c0 .82.633 1.363 1.412 1.363.803 0 1.436-.543 1.436-1.363 0-.835-.625-1.395-1.436-1.395-.787 0-1.412.543-1.412 1.395ZM14.962 15.457c0 .82.633 1.363 1.411 1.363.804 0 1.436-.543 1.436-1.363 0-.835-.624-1.395-1.436-1.395-.787 0-1.411.543-1.411 1.395ZM22.248 12.074c-1.014.09-1.558.73-1.558 1.899v2.052c0 1.177-.39 1.607-1.671 1.607h-.325v1.557h.747c2.166 0 3.261-.77 3.261-2.904v-1.728c0-1.104.243-1.598 1.298-1.598v-1.98c-1.055 0-1.298-.503-1.298-1.598V7.83C22.702 5.722 21.607 5 19.441 5h-.747v1.558h.325c1.282 0 1.671.421 1.671 1.598v1.923c0 1.168.544 1.679 1.558 1.776v.22Z" fill="#8080F2"/></svg>
