<svg width="24" height="24" viewBox="0 0 24 24" fill="none" xmlns="http://www.w3.org/2000/svg">
<path d="M17.523 15.1023C16.9719 15.1023 16.5237 14.6537 16.5237 14.1026C16.5237 13.5515 16.972 13.1033 17.523 13.1033C18.0741 13.1033 18.5223 13.5516 18.5223 14.1026C18.5224 14.6537 18.0741 15.1023 17.523 15.1023ZM6.477 15.1023C5.9259 15.1023 5.4777 14.6537 5.4777 14.1026C5.4777 13.5515 5.9259 13.1033 6.477 13.1033C7.0281 13.1033 7.4763 13.5516 7.4763 14.1026C7.4763 14.6537 7.028 15.1023 6.477 15.1023ZM17.8815 9.08229L19.8788 5.62309C19.9338 5.52763 19.9486 5.41425 19.9201 5.30785C19.8916 5.20144 19.822 5.11068 19.7267 5.05549C19.6312 5.00053 19.5179 4.98567 19.4115 5.01418C19.305 5.0427 19.2143 5.11226 19.1591 5.20759L17.1368 8.71059C15.5902 8.00479 13.8533 7.61169 12 7.61169C10.1467 7.61169 8.4098 8.00479 6.8633 8.71059L4.841 5.20759C4.78579 5.11225 4.69502 5.04269 4.5886 5.01418C4.48217 4.98566 4.36878 5.00052 4.2733 5.05549C4.1779 5.11063 4.10829 5.20138 4.07977 5.30781C4.05125 5.41424 4.06615 5.52764 4.1212 5.62309L6.1185 9.08229C2.6889 10.9476 0.3432 14.4198 0 18.5219H24C23.6565 14.4198 21.3108 10.9476 17.8815 9.08229" fill="#3DDC84"/>
</svg>
