<svg width="24" height="24" viewBox="0 0 24 24" fill="none" xmlns="http://www.w3.org/2000/svg">
<path d="M15.64 0C14.037 0.147 11.921 0.713 9.323 1.719C8.54363 2.28397 7.7286 2.79804 6.883 3.258L6.893 3.416C6.957 3.416 7.029 3.373 7.133 3.32C7.239 3.31 7.302 3.352 7.302 3.457L7.47 3.363L7.554 3.352L7.564 3.426C7.574 3.499 6.998 3.949 5.857 4.756L5.95 4.902L5.866 4.914L5.689 4.85C5.689 4.902 5.616 4.935 5.449 4.945L5.459 5.029L5.648 5.239C5.56137 5.23772 5.47581 5.21972 5.396 5.186C5.029 5.217 4.662 5.489 4.306 5.992L4.4 6.139C4.714 5.856 4.892 5.709 4.944 5.709L4.966 5.939C4.914 5.939 4.83 5.981 4.726 6.033L4.925 6.328C5.28998 5.92635 5.70898 5.57735 6.17 5.291C6.4 5.354 6.516 5.416 6.516 5.5L6.684 5.49C7.909 4.579 9.124 3.928 10.328 3.52L10.34 3.678C10.12 4.013 9.963 4.179 9.879 4.189C9.889 4.305 9.931 4.399 9.994 4.494C10.015 4.704 9.47 6.077 8.359 8.633C5.824 14.563 3.708 18.94 2 21.789C2 21.841 2.041 21.925 2.094 22.019C2.513 21.915 2.785 21.822 2.9 21.717L2.996 21.705L3.006 21.863L3.164 21.852L3.33 21.758C3.33 21.81 3.393 21.831 3.498 21.82L3.51 21.979C3.52 22.136 3.435 22.376 3.236 22.701C3.058 22.901 2.881 23.308 2.682 23.926L2.692 24L2.85 23.99C3.53 23.226 4.054 22.47 4.41 21.736C6.411 21.15 7.93 20.574 8.988 20.008C10.046 19.914 10.864 19.643 11.408 19.182L11.397 19.098L10.998 19.213L10.904 19.223L10.894 19.139C11.67 19.023 12.214 18.846 12.508 18.615C14.027 17.442 15.168 16.615 15.943 16.123C18.343 14.363 19.474 12.666 19.338 11.053C19.328 10.885 18.793 10.225 17.756 9.073C17.735 8.853 18.101 8.538 18.834 8.119L20.92 6.285C21.38 5.688 21.664 4.725 21.758 3.395L21.727 3.08C21.643 2.148 20.971 1.393 19.693 0.816C18.94 0.303 17.588 0.031 15.64 0ZM18.165 1.037C19.715 1.1 20.512 1.372 20.554 1.854L20.491 2.012L18.165 1.037ZM16.683 2.354C17.746 2.338 18.3 2.621 18.355 3.217L18.511 3.205L18.48 2.807L18.648 2.797C19.056 3.017 19.275 3.289 19.296 3.613C19.317 3.833 19.202 4.107 18.941 4.432C18.836 4.442 18.773 4.368 18.763 4.211L18.595 4.223L18.554 4.693C17.852 5.741 17.349 6.275 17.034 6.307C16.751 6.694 16.572 6.894 16.499 6.904C16.279 7.166 15.683 7.616 14.699 8.244C14.374 8.276 13.168 8.737 11.083 9.648C10.979 9.59874 10.863 9.58068 10.749 9.596L10.737 9.449C10.717 9.145 10.844 8.768 11.147 8.307C11.305 7.447 11.482 6.955 11.681 6.84L13.419 2.934C13.399 2.693 13.766 2.504 14.53 2.379L14.782 2.357L14.802 2.578C15.2657 2.50484 15.7304 2.43817 16.196 2.378C16.369 2.364 16.531 2.356 16.683 2.354V2.354ZM20.302 2.744H20.329C20.468 2.756 20.617 3.007 20.775 3.488L20.785 3.635C20.7 3.645 20.545 3.393 20.314 2.891L20.302 2.744V2.744ZM10.466 5.227H10.538L10.56 5.457C10.486 5.467 10.383 5.573 10.257 5.793L10.245 5.637C10.392 5.459 10.465 5.321 10.465 5.227H10.466ZM5.48 5.354L5.49 5.426C5.437 5.426 5.354 5.469 5.25 5.521L5.165 5.531L5.155 5.385L5.48 5.354ZM9.765 6.86L9.796 7.175L9.712 7.185L9.681 6.872L9.765 6.86V6.86ZM9.565 7.427C9.545 7.689 9.481 7.824 9.345 7.835L9.261 7.845C9.355 7.667 9.408 7.542 9.398 7.448L9.566 7.427H9.565ZM9.22 8.243L9.23 8.317L9.083 8.567L8.925 8.579L8.915 8.505C9.072 8.495 9.146 8.412 9.135 8.255L9.22 8.243V8.243ZM8.862 8.978L8.822 9.364L8.737 9.374L8.707 8.987L8.862 8.977V8.978ZM17.359 9.258L17.704 9.47C17.714 9.574 17.662 9.637 17.558 9.647C17.411 9.553 17.296 9.511 17.212 9.511L17.191 9.281L17.359 9.259V9.258ZM10.706 10.149L10.718 10.296L10.392 10.329L10.382 10.181L10.706 10.149ZM16.069 10.694C16.299 10.799 16.416 10.904 16.427 10.987L16.437 11.062C16.217 11.082 16.017 10.967 15.829 10.716L16.069 10.694V10.694ZM18.669 10.946C18.847 11.02 18.93 11.094 18.941 11.167L18.993 11.784C18.92 11.952 18.847 12.036 18.763 12.036L18.669 10.946V10.946ZM14.474 11.011C15.314 10.997 15.956 11.195 16.396 11.616L16.426 11.931C16.05 13.021 15.631 13.65 15.181 13.849L13.085 15.515C11.525 16.541 10.685 17.053 10.56 17.063C8.077 18.436 6.528 19.138 5.93 19.19L5.835 19.2C5.919 18.907 7.02 16.645 9.157 12.392C10.1 12.308 11.587 11.867 13.609 11.072L14.101 11.03C14.229 11.02 14.354 11.013 14.474 11.01V11.011ZM11.419 11.501L11.429 11.575L11.095 11.606L11.083 11.532L11.419 11.501ZM6.193 16.571C6.088 17.106 5.972 17.379 5.857 17.39L5.847 17.315C5.826 17.043 5.941 16.802 6.193 16.571ZM13.294 16.907L13.304 17.054C13.314 17.117 13.074 17.315 12.603 17.661C11.209 18.342 10.393 18.813 10.151 19.054C8.643 19.577 7.899 19.903 7.909 20.028C6.569 20.563 5.689 20.951 5.271 21.192C5.176 21.202 5.03 21.161 4.841 21.077C4.82 20.805 4.934 20.583 5.206 20.405C5.436 20.385 5.669 20.416 5.878 20.511C6.129 20.385 6.558 20.237 7.177 20.091L7.165 19.935L6.673 19.975C6.736 19.892 7.208 19.672 8.109 19.305L8.36 19.285L8.37 19.358C7.951 19.39 7.71 19.525 7.657 19.745C7.667 19.839 7.721 19.892 7.825 19.882C8.129 19.672 8.286 19.558 8.286 19.526C8.894 19.411 10.56 18.531 13.294 16.907ZM5.71 17.63L5.72 17.702C5.73 17.807 5.678 17.872 5.573 17.882L5.563 17.808C5.553 17.713 5.605 17.651 5.71 17.63V17.63ZM9.48 18.567C9.569 18.565 9.619 18.616 9.628 18.698C9.429 18.719 9.062 18.876 8.507 19.19L8.423 19.2L8.413 19.044C8.80106 19.0184 9.16619 18.8512 9.439 18.574C9.453 18.571 9.467 18.568 9.479 18.567H9.48ZM5.816 19.81L5.826 19.892C5.762 19.892 5.688 19.935 5.583 19.987L5.427 19.997C5.417 19.924 5.459 19.861 5.564 19.829L5.816 19.809V19.81ZM3.898 20.763L4.075 20.835C4.012 21.306 3.877 21.548 3.635 21.569C3.47526 21.4923 3.29904 21.4562 3.122 21.464L3.101 21.234C3.091 21.139 3.144 21.087 3.259 21.056C3.364 21.046 3.426 21.117 3.437 21.274C3.719 20.929 3.877 20.763 3.897 20.763H3.898Z" fill="#F9DC3E"/>
</svg>
