<svg width="24" height="24" viewBox="0 0 24 24" fill="none" xmlns="http://www.w3.org/2000/svg">
<g clip-path="url(#clip0)">
<path d="M23.6363 14.9044C22.0343 21.3344 15.5233 25.2444 9.0943 23.6404C2.6683 22.0504 -1.2457 15.5254 0.360298 9.10538C1.9603 2.67038 8.4733 -1.24262 14.8983 0.358383C21.3283 1.96338 25.2403 8.47338 23.6363 14.9064V14.9044V14.9044ZM17.2863 10.2914C17.5263 8.70138 16.3123 7.84138 14.6463 7.26138L15.1863 5.10838L13.8713 4.77838L13.3463 6.88538C13.0013 6.79838 12.6413 6.71838 12.2823 6.63538L12.8083 4.50838L11.4883 4.17838L10.9483 6.34338C10.6633 6.27638 10.3833 6.21138 10.1083 6.14338L8.2933 5.69338L7.9433 7.10038C7.9433 7.10038 8.9183 7.32538 8.8983 7.33638C9.4333 7.47238 9.5283 7.82238 9.5133 8.10238L8.0363 14.0224C7.9613 14.1884 7.7963 14.4284 7.4223 14.3364C7.4373 14.3564 6.4623 14.0964 6.4623 14.0964L5.8023 15.6064L7.5123 16.0324L8.4423 16.2744L7.9023 18.4644L9.2223 18.7914L9.7623 16.6214C10.1223 16.7214 10.4673 16.8114 10.8123 16.8944L10.3023 19.0484L11.6223 19.3784L12.1673 17.1884C14.4073 17.6154 16.0973 17.4454 16.8073 15.4144C17.3773 13.7774 16.7773 12.8344 15.5903 12.2184C16.4443 12.0254 17.0903 11.4584 17.2703 10.2884H17.2803L17.2863 10.2914ZM14.2763 14.5114C13.8723 16.1514 11.1193 15.2614 10.2263 15.0414L10.9463 12.1414C11.8423 12.3714 14.7033 12.8114 14.2763 14.5114V14.5114ZM14.6863 10.2714C14.3163 11.7614 12.0243 11.0064 11.2813 10.8214L11.9353 8.18138C12.6793 8.36138 15.0723 8.70538 14.6853 10.2654V10.2714H14.6863Z" fill="#F7931A"/>
</g>
<defs>
<clipPath id="clip0">
<rect width="24" height="24" fill="white"/>
</clipPath>
</defs>
</svg>
