<svg width="24" height="24" viewBox="0 0 24 24" fill="none" xmlns="http://www.w3.org/2000/svg">
<g clip-path="url(#clip0)">
<path d="M12.006 0.501085C5.391 0.506085 0.005 5.85109 0 12.4191V12.4491L2.042 13.6391L2.07 13.6211C3.04369 12.9534 4.1974 12.5977 5.378 12.6011C5.748 12.6011 6.111 12.6351 6.463 12.7011L6.427 12.6951C7.50239 12.886 8.5001 13.3825 9.301 14.1251L9.297 14.1231L9.647 14.4491L9.845 14.0151C10.037 13.5951 10.259 13.2011 10.505 12.8421C10.605 12.6981 10.713 12.5521 10.837 12.3961L11.042 12.1391L10.79 11.9281C9.68861 11.0049 8.36713 10.3824 6.954 10.1211L6.902 10.1131C5.54167 9.86623 4.14181 9.95235 2.822 10.3641L2.882 10.3481C3.854 6.09209 7.596 3.12509 12.015 3.12209C13.2395 3.11805 14.4527 3.35561 15.5852 3.82115C16.7178 4.28669 17.7473 4.97106 18.615 5.83509C19.8623 7.06495 20.7325 8.62549 21.123 10.3331C20.3143 10.0813 19.472 9.95352 18.625 9.95409H18.471C18.115 9.96009 17.771 9.98709 17.435 10.0321L17.48 10.0271L17.438 10.0331C17.3075 10.0499 17.1775 10.0699 17.048 10.0931C16.991 10.1031 16.934 10.1151 16.878 10.1261C16.7466 10.1528 16.6159 10.1828 16.486 10.2161L16.348 10.2501C16.1857 10.2937 16.0247 10.3417 15.865 10.3941L15.835 10.4041C15.481 10.5241 15.127 10.6721 14.785 10.8441L14.758 10.8571C14.606 10.9331 14.453 11.0171 14.288 11.1131L14.253 11.1351C13.4535 11.6114 12.7407 12.22 12.145 12.9351L12.134 12.9491L12.059 13.0411C11.9267 13.2039 11.8006 13.3717 11.681 13.5441C11.593 13.6741 11.504 13.8131 11.393 13.9961L11.333 14.1001C11.2511 14.2419 11.173 14.386 11.099 14.5321L11.083 14.5611C10.913 14.9011 10.766 15.2591 10.643 15.6241L10.626 15.6771C10.3348 16.5523 10.1961 17.4709 10.216 18.3931V18.3861V18.4981C10.2211 18.6419 10.2288 18.7856 10.239 18.9291L10.237 18.8921C10.2486 19.0297 10.2626 19.167 10.279 19.3041L10.284 19.3461L10.297 19.4491C10.315 19.5761 10.335 19.7011 10.359 19.8271C10.6 21.0931 11.204 22.3591 12.104 23.4871L12.145 23.5381L12.187 23.4881C12.546 23.0641 13.436 21.7181 13.512 20.9111V20.8961L13.506 20.8831C13.0848 20.083 12.8652 19.1923 12.866 18.2881C12.866 15.2721 15.236 12.7671 18.262 12.5861L18.462 12.5791C19.6972 12.5509 20.9104 12.9093 21.932 13.6041L21.959 13.6231L24 12.4361V12.4061C24.0051 10.8391 23.6972 9.28697 23.0945 7.84059C22.4918 6.39421 21.6063 5.08273 20.49 3.98309C19.3746 2.8731 18.0512 1.99409 16.5955 1.39641C15.1399 0.79874 13.5806 0.494147 12.007 0.500085L12.006 0.501085Z" fill="#F01F7A"/>
</g>
<defs>
<clipPath id="clip0">
<rect width="24" height="24" fill="white"/>
</clipPath>
</defs>
</svg>
