<svg width="24" height="24" viewBox="0 0 24 24" fill="none" xmlns="http://www.w3.org/2000/svg">
<path d="M1.5 15.9387V2.48621C1.5 1.93929 1.94275 1.5 2.48612 1.5H21.5156C22.0608 1.5 22.5 1.94191 22.5 2.48533V15.4574C21.9085 15.096 21.2164 14.9149 20.4245 14.9149C19.3238 14.9149 18.489 15.1739 17.9203 15.6902C17.3515 16.2074 17.068 16.8567 17.068 17.6381C17.068 18.4948 17.362 19.124 17.95 19.5265C18.2974 19.768 18.9248 19.9903 19.8321 20.1959L20.7561 20.4033C21.2969 20.5215 21.6924 20.6571 21.9461 20.8111C22.1981 20.9686 22.3241 21.1926 22.3241 21.4805C22.3241 21.9741 22.0704 22.3119 21.5611 22.493L21.5401 22.5H19.595C19.3609 22.4233 19.1526 22.2834 18.993 22.0957C18.8311 21.8988 18.7218 21.6013 18.6675 21.2023H16.9262C16.9262 21.6923 17.0216 22.1237 17.2106 22.5H15.7398C15.9113 22.1535 15.997 21.7676 15.997 21.3449C15.997 20.567 15.7371 19.9728 15.2165 19.5624C14.8805 19.2981 14.3835 19.0872 13.7246 18.9288L12.2205 18.5683C11.6404 18.43 11.2615 18.3093 11.0839 18.2069C10.9551 18.1423 10.8476 18.0421 10.7742 17.9181C10.7008 17.7942 10.6646 17.6517 10.67 17.5077C10.67 17.1691 10.81 16.9039 11.09 16.7149C11.37 16.525 11.7463 16.4305 12.2153 16.4305C12.637 16.4305 12.9905 16.504 13.274 16.6493C13.701 16.8707 13.9303 17.2443 13.9609 17.7694H15.7135C15.682 16.8418 15.3416 16.1338 14.6924 15.6464C14.0431 15.159 13.2583 14.9149 12.3386 14.9149C11.2379 14.9149 10.4031 15.1739 9.83525 15.6902C9.2665 16.2074 8.98212 16.8567 8.98212 17.6381C8.98212 18.4948 9.27613 19.124 9.86413 19.5265C10.2115 19.768 10.8389 19.9903 11.7471 20.1959L12.6702 20.4033C13.211 20.5215 13.6074 20.6571 13.8603 20.8111C14.1123 20.9686 14.2391 21.1926 14.2391 21.4805C14.2391 21.9741 13.9845 22.3119 13.4752 22.493L13.4534 22.5H11.5082C11.2742 22.4233 11.0658 22.2834 10.9062 22.0957C10.7444 21.8988 10.635 21.6013 10.5808 21.2023H8.8395C8.8395 21.6923 8.934 22.1237 9.123 22.5H7.28463C7.58444 22.0199 7.78304 21.4836 7.86825 20.924H6.06313C5.94063 21.3738 5.78662 21.7116 5.60112 21.9365C5.37275 22.2217 5.0735 22.409 4.70338 22.5H3.6175C3.22375 22.3994 2.88338 22.1762 2.59812 21.8332C2.193 21.3467 1.99 20.6133 1.99 19.635C1.99 18.6558 2.18075 17.8989 2.564 17.3642C2.94637 16.8295 3.46963 16.5618 4.13288 16.5618C4.78388 16.5618 5.27475 16.7516 5.60637 17.1306C5.79187 17.3432 5.94412 17.6591 6.06137 18.0774H7.8875C7.8595 17.5331 7.65825 16.9905 7.28375 16.4497C6.60475 15.4872 5.53113 15.0059 4.06375 15.0059C3.04175 15.0059 2.18687 15.3165 1.50088 15.9396L1.5 15.9387ZM22.5 19.1362V17.7694H22.0468C22.0153 17.2443 21.786 16.8715 21.3599 16.6501C21.0755 16.5049 20.7229 16.4314 20.3011 16.4314C19.8312 16.4314 19.4559 16.5259 19.1759 16.7158C18.8959 16.9048 18.7559 17.1691 18.7559 17.5086C18.7559 17.821 18.8933 18.0538 19.1698 18.2078C19.3474 18.3102 19.7263 18.4309 20.3064 18.5692L21.8096 18.9297C22.0634 18.991 22.2944 19.0601 22.5 19.1362V19.1362Z" fill="#54C1FF"/>
</svg>
