<svg width="24" height="24" viewBox="0 0 24 24" fill="none" xmlns="http://www.w3.org/2000/svg">
<path d="M7.21845 7.21868L5.86057 5.8608L5.86467 15.6737L5.88108 16.1331C5.88928 16.3506 5.9262 16.5926 5.99594 16.8428L16.7524 20.6375L19.4394 19.4478V19.4437L7.21845 7.21868Z" fill="#00D2B8"/>
<path d="M5.99595 16.8428L5.99185 16.8305L5.99595 16.8428ZM19.4394 19.4437L16.7524 20.6334L5.99595 16.8428C6.20107 17.6305 6.65644 18.5166 7.14462 19.0007L10.6562 22.4918L18.4631 22.5L19.4394 19.4437Z" fill="#55DDCA"/>
<path d="M1.6803 12.1743C1.3316 12.5436 1.5039 13.3107 2.06592 13.8727L4.47811 16.3095L5.99599 16.8428C5.93035 16.5885 5.88933 16.3465 5.88112 16.1331L5.86471 15.6737L5.86061 5.8608L1.6803 12.1743Z" fill="#0081C6"/>
<path d="M16.8385 5.98797C16.5842 5.92233 16.3421 5.88541 16.1247 5.87721L15.6406 5.8608H5.86057L19.4435 19.4437L20.6373 16.7526L16.8385 5.98797Z" fill="#0079B3"/>
<path d="M16.8263 5.98385L16.8386 5.98795L16.8263 5.98385ZM18.9964 7.14072C18.5041 6.64433 17.6303 6.19307 16.8386 5.98795L20.6333 16.7526L19.4395 19.4437L22.3563 18.5125L22.3645 10.5211L18.9964 7.14072Z" fill="#00A4E4"/>
<path d="M16.3093 4.47829L13.8766 2.06199C13.3146 1.50407 12.5474 1.33177 12.1782 1.68047L5.86057 5.86079H15.6406L16.1247 5.8772C16.3421 5.8854 16.5842 5.92232 16.8385 5.98796L16.3093 4.47829Z" fill="#00D2B8"/>
</svg>
