<svg width="24" height="24" viewBox="0 0 24 24" fill="none" xmlns="http://www.w3.org/2000/svg">
<path d="M21.0019 17.2252H12.287C10.1798 17.2252 8.99904 18.7 8.99904 20.2687C8.99904 21.7166 10.0003 23.3123 12.287 23.3123H21.0019V17.2252Z" fill="#669DF3"/>
<path d="M21.0019 23.3075C22.6577 23.3075 24 21.9449 24 20.264C24 18.583 22.6577 17.2204 21.0019 17.2204C19.3461 17.2204 18.0038 18.583 18.0038 20.264C18.0038 21.9449 19.3461 23.3075 21.0019 23.3075Z" fill="#1A73E8"/>
<path d="M12.0029 9.10973H3.288C1.1808 9.10973 0 10.5845 0 12.1542C0 13.6021 1.00128 15.1978 3.288 15.1978H12.0029V9.10973Z" fill="#669DF3"/>
<path d="M12.0029 15.1978C13.6587 15.1978 15.001 13.8351 15.001 12.1542C15.001 10.4733 13.6587 9.11068 12.0029 9.11068C10.3471 9.11068 9.0048 10.4733 9.0048 12.1542C9.0048 13.8351 10.3471 15.1978 12.0029 15.1978Z" fill="#1A73E8"/>
<path d="M21.0019 1H12.287C10.1798 1 8.99904 2.47476 8.99904 4.04355C8.99904 5.49144 10.0003 7.08709 12.287 7.08709H21.0019V1Z" fill="#669DF3"/>
<path d="M21.0019 7.08709C22.6577 7.08709 24 5.72445 24 4.04355C24 2.36264 22.6577 1 21.0019 1C19.3461 1 18.0038 2.36264 18.0038 4.04355C18.0038 5.72445 19.3461 7.08709 21.0019 7.08709Z" fill="#1A73E8"/>
</svg>
