<svg width="24" height="24" viewBox="0 0 24 24" fill="none" xmlns="http://www.w3.org/2000/svg">
<path d="M7.30546 9.05624L11.857 6.42656C11.9695 6.36093 12.1101 6.36093 12.2273 6.42656L16.7789 9.05624C16.8914 9.12187 16.9617 9.24374 16.9617 9.37499V14.6344C16.9617 14.7656 16.8914 14.8875 16.7789 14.9531L12.2273 17.5828C12.1148 17.6484 11.9742 17.6484 11.857 17.5828L7.30546 14.9484C7.19296 14.8828 7.12265 14.7609 7.12265 14.6297V9.37499C7.12265 9.24374 7.19296 9.12187 7.30546 9.05624Z" fill="#8080F2"/>
<path d="M23.8476 11.5734L18.4008 2.09531C18.2039 1.75312 17.8383 1.5 17.4398 1.5H6.55078C6.15703 1.5 5.7914 1.75312 5.58984 2.09531L0.147656 11.55C-0.0492187 11.8922 -0.0492187 12.3234 0.147656 12.6656L5.59453 22.064C5.7914 22.4062 6.15703 22.5797 6.55546 22.5797H17.4492C17.843 22.5797 18.2086 22.4109 18.4101 22.0687L23.857 12.6562C24.0492 12.3141 24.0492 11.9156 23.8476 11.5734ZM19.3383 16.1297C19.3383 16.2703 19.2539 16.3969 19.132 16.4672L12.1945 20.4703C12.0726 20.5406 11.9226 20.5406 11.8008 20.4703L4.85859 16.4672C4.73671 16.3969 4.65234 16.2703 4.65234 16.1297V8.12343C4.65234 7.98281 4.73671 7.85624 4.85859 7.78593L11.7961 3.78281C11.918 3.7125 12.068 3.7125 12.1898 3.78281L19.132 7.78593C19.2539 7.85624 19.3383 7.98281 19.3383 8.12343V16.1297Z" fill="#4B32C3"/>
</svg>
