<svg width="24" height="24" viewBox="0 0 24 24" fill="none" xmlns="http://www.w3.org/2000/svg">
<g clip-path="url(#clip0)">
<path fill-rule="evenodd" clip-rule="evenodd" d="M19.4044 5.79333L16.2622 2.65111C15.8456 2.23444 15.28 2 14.6911 2H6.72222C5.49444 2 4.5 2.99444 4.5 4.22222V19.7778C4.5 21.0056 5.49444 22 6.72222 22H17.8333C19.0611 22 20.0556 21.0056 20.0556 19.7778V7.36444C20.0556 6.77556 19.8211 6.21 19.4044 5.79333V5.79333Z" stroke="white" stroke-width="1.25" stroke-linecap="round" stroke-linejoin="round"/>
<path d="M20.0556 7.55556H15.6111C14.9978 7.55556 14.5 7.05778 14.5 6.44444V2" stroke="white" stroke-width="1.25" stroke-linecap="round" stroke-linejoin="round"/>
<path d="M7.83334 10.8889H14.5" stroke="white" stroke-width="1.1" stroke-linecap="round" stroke-linejoin="round"/>
<path d="M7.83334 14.2222H14.5" stroke="white" stroke-width="1.1" stroke-linecap="round" stroke-linejoin="round"/>
<path d="M7.83334 17.5556H12.6444" stroke="white" stroke-width="1.1" stroke-linecap="round" stroke-linejoin="round"/>
</g>
<defs>
<clipPath id="clip0">
<rect width="24" height="24" fill="white"/>
</clipPath>
</defs>
</svg>
