<svg width="24" height="24" viewBox="0 0 24 24" fill="none" xmlns="http://www.w3.org/2000/svg">
<g clip-path="url(#clip0)">
<path d="M1.81104 10.7144C1.76404 10.7144 1.75304 10.6914 1.77604 10.6554L2.02204 10.3404C2.04504 10.3054 2.10304 10.2824 2.15004 10.2824H6.32204C6.36804 10.2824 6.38004 10.3174 6.35704 10.3524L6.15804 10.6554C6.13504 10.6914 6.07604 10.7254 6.04104 10.7254L1.81104 10.7144ZM0.0470373 11.7894C3.72976e-05 11.7894 -0.0119627 11.7664 0.0120373 11.7314L0.257037 11.4154C0.280037 11.3804 0.339037 11.3574 0.386037 11.3574H5.71404C5.76104 11.3574 5.78404 11.3924 5.77204 11.4274L5.67904 11.7074C5.66704 11.7544 5.62104 11.7774 5.57404 11.7774L0.0470373 11.7894ZM2.87504 12.8644C2.82804 12.8644 2.81604 12.8294 2.84004 12.7944L3.00304 12.5024C3.02604 12.4674 3.07304 12.4324 3.12004 12.4324H5.45704C5.50404 12.4324 5.52704 12.4674 5.52704 12.5144L5.50404 12.7944C5.50404 12.8414 5.45704 12.8764 5.42204 12.8764L2.87504 12.8644ZM15.004 10.5044C14.268 10.6914 13.765 10.8314 13.041 11.0184C12.865 11.0644 12.854 11.0764 12.701 10.9014C12.527 10.7024 12.398 10.5744 12.153 10.4574C11.416 10.0954 10.703 10.2004 10.038 10.6324C9.24304 11.1464 8.83404 11.9064 8.84604 12.8524C8.85704 13.7874 9.50004 14.5584 10.423 14.6874C11.218 14.7924 11.883 14.5124 12.41 13.9174C12.515 13.7874 12.608 13.6474 12.725 13.4834H10.47C10.225 13.4834 10.166 13.3314 10.248 13.1334C10.4 12.7714 10.68 12.1634 10.844 11.8594C10.8691 11.8031 10.9101 11.7554 10.962 11.7221C11.0139 11.6889 11.0744 11.6716 11.136 11.6724H15.389C15.366 11.9884 15.366 12.3034 15.319 12.6194C15.198 13.4513 14.8684 14.2391 14.361 14.9094C13.52 16.0194 12.421 16.7094 11.031 16.8954C9.88604 17.0474 8.82204 16.8254 7.88804 16.1254C7.02304 15.4704 6.53204 14.6054 6.40404 13.5304C6.25204 12.2564 6.62604 11.1114 7.39704 10.1064C8.22704 9.02041 9.32504 8.33041 10.669 8.08641C11.767 7.88641 12.819 8.01641 13.765 8.65741C14.385 9.06741 14.828 9.62741 15.121 10.3054C15.191 10.4104 15.144 10.4694 15.004 10.5054V10.5044ZM18.872 16.9664C17.808 16.9424 16.838 16.6384 16.02 15.9374C15.3395 15.3639 14.891 14.5624 14.758 13.6824C14.548 12.3624 14.91 11.1934 15.705 10.1534C16.558 9.03141 17.586 8.44741 18.977 8.20341C20.169 7.99341 21.291 8.10841 22.307 8.79841C23.23 9.42841 23.803 10.2824 23.955 11.4034C24.153 12.9814 23.698 14.2664 22.611 15.3654C21.84 16.1484 20.893 16.6384 19.806 16.8604C19.491 16.9204 19.176 16.9304 18.872 16.9664V16.9664ZM21.652 12.2464C21.641 12.0934 21.641 11.9764 21.618 11.8594C21.408 10.7024 20.344 10.0494 19.234 10.3054C18.147 10.5504 17.446 11.2404 17.189 12.3384C16.979 13.2504 17.423 14.1734 18.264 14.5484C18.907 14.8284 19.549 14.7924 20.169 14.4784C21.092 13.9984 21.594 13.2504 21.653 12.2454L21.652 12.2464Z" fill="#00ADD8"/>
</g>
<defs>
<clipPath id="clip0">
<rect width="24" height="24" fill="white"/>
</clipPath>
</defs>
</svg>
