<svg width="24" height="24" viewBox="0 0 24 24" fill="none" xmlns="http://www.w3.org/2000/svg">
<path d="M11.9694 10.4017V14.1633H18.1909C17.9395 15.7767 16.3114 18.8929 11.9694 18.8929C8.22608 18.8929 5.16928 15.795 5.16928 11.9694C5.16928 8.14381 8.227 5.04588 11.9694 5.04588C14.0993 5.04588 15.5262 5.94994 16.3434 6.73608L19.318 3.86758C17.4075 2.08414 14.9302 1 11.9694 1C5.90423 1 1 5.90423 1 11.9694C1 18.0345 5.90423 22.9388 11.9694 22.9388C18.3006 22.9388 22.5 18.4879 22.5 12.2199C22.5 11.4995 22.4223 10.9492 22.3272 10.4017H11.9694Z" fill="#4285F4"/>
</svg>
