<svg width="24" height="24" viewBox="0 0 24 24" fill="none" xmlns="http://www.w3.org/2000/svg">
<g clip-path="url(#clip0)">
<path d="M13.731 2.751L18.666 5.601C19.482 4.742 20.839 4.708 21.698 5.524C21.846 5.664 21.972 5.825 22.075 6.001C22.664 7.029 22.307 8.34 21.279 8.929C21.105 9.029 20.918 9.104 20.721 9.152V14.851C21.867 15.124 22.575 16.274 22.301 17.42C22.253 17.624 22.174 17.82 22.069 18.001C21.477 19.024 20.168 19.375 19.142 18.783C18.946 18.67 18.767 18.524 18.616 18.354L13.711 21.186C14.083 22.31 13.473 23.521 12.35 23.892C12.133 23.963 11.908 24 11.68 24C10.499 24.001 9.54103 23.045 9.54003 21.864C9.54003 21.659 9.56903 21.454 9.62803 21.255L4.69203 18.408C3.87603 19.262 2.52103 19.295 1.66603 18.478C0.812028 17.662 0.780028 16.307 1.59603 15.452C1.87903 15.155 2.24203 14.946 2.64003 14.849L2.64103 9.15C1.49103 8.874 0.783028 7.717 1.06003 6.566C1.10703 6.368 1.18303 6.177 1.28403 6C1.87603 4.976 3.18603 4.626 4.21103 5.218C4.38803 5.319 4.55003 5.446 4.69103 5.595L9.62903 2.745C9.29303 1.612 9.94003 0.423001 11.07 0.0880008C11.267 0.0290008 11.474 7.84623e-07 11.68 7.84623e-07C12.861 -0.000999215 13.819 0.954001 13.82 2.134C13.821 2.343 13.79 2.552 13.731 2.751ZM13.216 3.628C13.197 3.649 13.179 3.667 13.158 3.686L19.619 14.876C19.645 14.867 19.675 14.86 19.701 14.853V9.146C18.556 8.863 17.859 7.704 18.143 6.558C18.149 6.534 18.155 6.509 18.162 6.486L13.216 3.628V3.628ZM10.201 3.687L10.141 3.627L5.19503 6.479C5.52203 7.614 4.86803 8.797 3.73403 9.124C3.70803 9.132 3.68303 9.138 3.65803 9.145V14.853L3.74203 14.876L10.203 3.686L10.201 3.687V3.687ZM12.277 4.194C11.887 4.306 11.474 4.306 11.085 4.194L4.62503 15.383C4.91903 15.666 5.12703 16.028 5.22503 16.424H18.136C18.233 16.026 18.443 15.663 18.739 15.38L12.277 4.194ZM13.263 20.421L18.176 17.583C18.161 17.536 18.149 17.489 18.138 17.441H5.22203L5.20103 17.524L10.14 20.376C10.528 19.972 11.074 19.723 11.68 19.723C12.307 19.723 12.87 19.992 13.263 20.421Z" fill="#E10098"/>
</g>
<defs>
<clipPath id="clip0">
<rect width="24" height="24" fill="white"/>
</clipPath>
</defs>
</svg>
