<svg width="24" height="24" viewBox="0 0 24 24" fill="none" xmlns="http://www.w3.org/2000/svg">
<path d="M20 2H4C2.89543 2 2 2.89543 2 4V20C2 21.1046 2.89543 22 4 22H20C21.1046 22 22 21.1046 22 20V4C22 2.89543 21.1046 2 20 2Z" stroke="#14B584" stroke-width="1.25" stroke-linecap="round" stroke-linejoin="round"/>
<path d="M8 10C9.10457 10 10 9.10457 10 8C10 6.89543 9.10457 6 8 6C6.89543 6 6 6.89543 6 8C6 9.10457 6.89543 10 8 10Z" stroke="#14B584" stroke-width="1.25" stroke-linecap="round" stroke-linejoin="round"/>
<path d="M22 15.4545L16.375 10L4 22" stroke="#14B584" stroke-width="1.25" stroke-linecap="round" stroke-linejoin="round"/>
</svg>
