<svg width="24" height="24" viewBox="0 0 24 24" fill="none" xmlns="http://www.w3.org/2000/svg">
<path d="M8.70063 18.5605C8.70063 18.5605 7.78348 19.0939 9.35332 19.2743C11.2551 19.4913 12.2271 19.4602 14.323 19.0635C14.323 19.0635 14.874 19.409 15.6435 19.7083C10.9452 21.7219 5.01039 19.5916 8.70063 18.5605Z" fill="#5382A1"/>
<path d="M8.12654 15.9329C8.12654 15.9329 7.09788 16.6943 8.66889 16.8568C10.7005 17.0664 12.3049 17.0836 15.0811 16.549C15.0811 16.549 15.465 16.9383 16.0688 17.1512C10.3884 18.8122 4.06131 17.2822 8.12654 15.9329Z" fill="#5382A1"/>
<path d="M12.9664 11.4756C14.1241 12.8084 12.6623 14.0078 12.6623 14.0078C12.6623 14.0078 15.6017 12.4904 14.2518 10.5902C12.9909 8.8181 12.024 7.93764 17.2584 4.90191C17.2584 4.90191 9.0422 6.95393 12.9664 11.4756Z" fill="#E76F00"/>
<path d="M19.1803 20.5041C19.1803 20.5041 19.859 21.0633 18.4328 21.4959C15.7209 22.3174 7.14556 22.5655 4.76337 21.5286C3.90704 21.1561 5.51291 20.6391 6.01805 20.5306C6.54487 20.4164 6.84593 20.4377 6.84593 20.4377C5.89359 19.7668 0.690439 21.755 4.20298 22.3244C13.7822 23.8778 21.665 21.6248 19.1803 20.5041Z" fill="#5382A1"/>
<path d="M9.14171 13.2104C9.14171 13.2104 4.77976 14.2464 7.59704 14.6227C8.78658 14.7819 11.1579 14.7459 13.3667 14.5608C15.1719 14.4085 16.9845 14.0848 16.9845 14.0848C16.9845 14.0848 16.348 14.3574 15.8875 14.6718C11.458 15.8368 2.90103 15.2948 5.36447 14.1032C7.4478 13.0962 9.14171 13.2104 9.14171 13.2104Z" fill="#5382A1"/>
<path d="M16.9665 17.5842C21.4693 15.2444 19.3874 12.9958 17.9343 13.2988C17.5781 13.3729 17.4193 13.4371 17.4193 13.4371C17.4193 13.4371 17.5515 13.23 17.804 13.1403C20.6788 12.1297 22.8897 16.1212 16.876 17.7021C16.876 17.7022 16.9457 17.6399 16.9665 17.5842Z" fill="#5382A1"/>
<path d="M14.2517 0C14.2517 0 16.7455 2.49455 11.8866 6.33047C7.99023 9.40753 10.9981 11.162 11.8849 13.1665C9.61059 11.1145 7.94152 9.30811 9.06126 7.62688C10.7048 5.15897 15.2579 3.96245 14.2517 0Z" fill="#E76F00"/>
<path d="M9.58417 23.9246C13.9063 24.2012 20.5434 23.7711 20.7006 21.726C20.7006 21.726 20.3984 22.5012 17.1286 23.1169C13.4396 23.8112 8.88968 23.7301 6.1911 23.2852C6.19117 23.2851 6.74353 23.7424 9.58417 23.9246Z" fill="#5382A1"/>
</svg>
