<svg width="24" height="24" viewBox="0 0 24 24" fill="none" xmlns="http://www.w3.org/2000/svg">
<rect x="1" y="1" width="22" height="22" rx="4" fill="#F0F04F"/>
<path d="M20.4377 17.087C20.2692 16.1108 19.5848 15.2909 17.5575 14.5264C16.8532 14.2254 16.0681 14.0098 15.8341 13.5135C15.7511 13.2246 15.74 13.0619 15.7926 12.887C15.9435 12.3196 16.6718 12.1427 17.2491 12.3054C17.6209 12.4213 17.9728 12.6877 18.1851 13.1128C19.1779 12.5149 19.1759 12.5189 19.8691 12.108C19.6153 11.742 19.4798 11.5732 19.3137 11.4166C18.7166 10.7963 17.903 10.4769 16.6018 10.5013L15.924 10.5828C15.2745 10.7355 14.6555 11.0525 14.2925 11.4776C13.2034 12.6269 13.514 14.6383 14.8393 15.4661C16.1449 16.3775 18.0629 16.5848 18.3079 17.437C18.5462 18.4803 17.4834 18.8181 16.427 18.6981C15.6485 18.5475 15.2155 18.1795 14.7474 17.5103C13.8858 17.9741 13.8858 17.974 13 18.4478C13.2101 18.875 13.4308 19.0683 13.7829 19.4383C15.4495 21.0105 19.6199 20.9332 20.3679 18.5536C20.3982 18.4719 20.5996 17.927 20.4377 17.087ZM12.0501 10.5H9.86829L9.85935 15.7389C9.85935 16.853 9.9214 17.8744 9.7263 18.1875C9.40711 18.8032 8.57996 18.7269 8.203 18.6075C7.81933 18.4324 7.62424 18.1833 7.39821 17.8313C7.33616 17.7303 7.28958 17.652 7.27392 17.646L5.5 18.6549C5.79497 19.2172 6.22951 19.7052 6.7861 20.0223C7.61753 20.4857 8.73499 20.6278 9.90369 20.3786C10.6643 20.1728 11.3206 19.7466 11.6642 19.0978C12.161 18.2472 12.0544 17.2177 12.0499 16.0789C12.0611 14.2211 12.0501 12.3637 12.0501 10.5Z" fill="black"/>
</svg>
