<svg width="24" height="24" viewBox="0 0 24 24" fill="none" xmlns="http://www.w3.org/2000/svg">
<path d="M1.75235 11.8552C2.77455 11.7579 3.3181 11.2468 3.3181 10.0786V8.15585C3.3181 6.9795 3.6994 6.55764 4.98121 6.55764H5.30571V5H4.56746C2.40136 5 1.29803 5.72203 1.29803 7.83134V9.38086C1.29803 10.4761 1.05465 10.9791 0 10.9791V12.9586C1.05465 12.9586 1.28992 13.4534 1.29803 14.5568V16.2848C1.30615 18.4184 2.40136 19.1891 4.56746 19.1891H5.31383V17.6315H4.98932C3.6994 17.6315 3.32621 17.2015 3.32621 16.0252L3.3181 13.9727C3.3181 12.8044 2.77455 12.1635 1.75235 12.0743V11.8552Z" fill="#F0F04F"/>
<path d="M6.19876 15.4573C6.19876 16.2767 6.83155 16.8202 7.61037 16.8202C8.41353 16.8202 9.04632 16.2767 9.04632 15.4573C9.04632 14.6217 8.42164 14.0619 7.61037 14.0619C6.82344 14.0619 6.19876 14.6055 6.19876 15.4573Z" fill="#F0F04F"/>
<path d="M10.5803 15.4573C10.5803 16.2767 11.2131 16.8202 11.9919 16.8202C12.795 16.8202 13.4278 16.2767 13.4278 15.4573C13.4278 14.6217 12.8032 14.0619 11.9919 14.0619C11.205 14.0619 10.5803 14.6055 10.5803 15.4573Z" fill="#F0F04F"/>
<path d="M14.9618 15.4573C14.9618 16.2767 15.5946 16.8202 16.3734 16.8202C17.1766 16.8202 17.8094 16.2767 17.8094 15.4573C17.8094 14.6217 17.1847 14.0619 16.3734 14.0619C15.5865 14.0619 14.9618 14.6055 14.9618 15.4573Z" fill="#F0F04F"/>
<path d="M22.2477 12.0743C21.2336 12.1635 20.69 12.8044 20.69 13.9727V16.0252C20.69 17.2015 20.3006 17.6315 19.0188 17.6315H18.6943V19.1891H19.4407C21.6068 19.1891 22.702 18.4184 22.702 16.2848V14.5568C22.702 13.4534 22.9453 12.9586 24 12.9586V10.9791C22.9453 10.9791 22.702 10.4761 22.702 9.38086V7.83134C22.702 5.72203 21.6068 5 19.4407 5H18.6943V6.55764H19.0188C20.3006 6.55764 20.69 6.9795 20.69 8.15585V10.0786C20.69 11.2468 21.2336 11.7579 22.2477 11.8552V12.0743Z" fill="#F0F04F"/>
</svg>
