<svg width="24" height="24" viewBox="0 0 24 24" fill="none" xmlns="http://www.w3.org/2000/svg">
<path d="M12.395 0L2 6V18L12.395 24L22.79 18V6L12.395 0ZM18.395 16.59C18.395 17.295 17.749 17.88 16.866 17.88C16.235 17.88 15.515 17.625 15.065 17.07L9.065 9.929V16.589C9.065 17.31 8.495 17.879 7.791 17.879H7.715C6.994 17.879 6.425 17.279 6.425 16.589V7.41C6.425 6.705 7.055 6.12 7.925 6.12C8.571 6.12 9.305 6.375 9.755 6.93L15.725 14.071V7.41C15.725 6.689 16.325 6.12 17.015 6.12H17.09C17.81 6.12 18.38 6.72 18.38 7.41V16.59H18.395Z" fill="#3BAE5B"/>
</svg>
