<svg width="24" height="24" viewBox="0 0 24 24" fill="none" xmlns="http://www.w3.org/2000/svg">
<g clip-path="url(#clip0)">
<path d="M12.14 24.0002C11.819 24.0002 11.499 23.9163 11.218 23.7533L8.282 22.0163C7.844 21.7712 8.058 21.6842 8.202 21.6332C8.787 21.4303 8.905 21.3832 9.53 21.0292C9.595 20.9922 9.681 21.0062 9.748 21.0462L12.004 22.3853C12.086 22.4303 12.201 22.4303 12.276 22.3853L21.071 17.3092C21.153 17.2622 21.205 17.1682 21.205 17.0712V6.92125C21.205 6.82225 21.152 6.72925 21.068 6.67925L12.277 1.60725C12.196 1.56025 12.088 1.56025 12.006 1.60725L3.217 6.68025C3.132 6.72925 3.078 6.82525 3.078 6.92125V17.0712C3.078 17.1682 3.132 17.2603 3.217 17.3062L5.626 18.6982C6.933 19.3522 7.734 18.5823 7.734 17.8083V7.78725C7.734 7.64525 7.848 7.53425 7.99 7.53425H9.105C9.244 7.53425 9.36 7.64625 9.36 7.78725V17.8083C9.36 19.5533 8.41 20.5532 6.756 20.5532C6.248 20.5532 5.847 20.5533 4.73 20.0023L2.422 18.6752C1.852 18.3462 1.5 17.7302 1.5 17.0712V6.92125C1.5 6.26225 1.853 5.64625 2.422 5.31825L11.217 0.23625C11.774 -0.07875 12.513 -0.07875 13.065 0.23625L21.859 5.31825C22.429 5.64725 22.783 6.26225 22.783 6.92125V17.0712C22.783 17.7302 22.429 18.3442 21.859 18.6752L13.065 23.7533C12.785 23.9163 12.466 24.0002 12.14 24.0002ZM19.241 13.9932C19.241 12.0933 17.957 11.5872 15.254 11.2302C12.523 10.8692 12.245 10.6823 12.245 10.0433C12.245 9.51525 12.48 8.81025 14.503 8.81025C16.31 8.81025 16.976 9.19925 17.25 10.4172C17.274 10.5322 17.379 10.6163 17.497 10.6163H18.638C18.709 10.6163 18.776 10.5852 18.824 10.5352C18.872 10.4812 18.898 10.4122 18.891 10.3392C18.714 8.24125 17.32 7.26325 14.503 7.26325C11.995 7.26325 10.499 8.32125 10.499 10.0962C10.499 12.0212 11.987 12.5533 14.394 12.7913C17.274 13.0732 17.497 13.4943 17.497 14.0603C17.497 15.0433 16.708 15.4622 14.855 15.4622C12.528 15.4622 12.016 14.8783 11.844 13.7203C11.824 13.5963 11.718 13.5052 11.591 13.5052H10.454C10.313 13.5052 10.2 13.6173 10.2 13.7583C10.2 15.2403 11.006 17.0063 14.855 17.0063C17.643 17.0072 19.241 15.9102 19.241 13.9932Z" fill="#35B568"/>
</g>
<defs>
<clipPath id="clip0">
<rect width="24" height="24" fill="white"/>
</clipPath>
</defs>
</svg>
