<svg width="24" height="24" viewBox="0 0 24 24" fill="none" xmlns="http://www.w3.org/2000/svg">
<path fill-rule="evenodd" clip-rule="evenodd" d="M3 16.041V7.959C3 7.244 3.381 6.584 4 6.227L11 2.186C11.619 1.829 12.381 1.829 13 2.186L20 6.227C20.619 6.584 21 7.245 21 7.959V16.042C21 16.757 20.619 17.417 20 17.774L13 21.815C12.381 22.172 11.619 22.172 11 21.815L4 17.774C3.381 17.416 3 16.756 3 16.041Z" stroke="white" stroke-width="1.25" stroke-linecap="round" stroke-linejoin="round"/>
<path d="M16.49 12.86V9.396L7.5 4.206" stroke="white" stroke-width="1.25" stroke-linecap="round" stroke-linejoin="round"/>
<path d="M9.04 17L6 15.24" stroke="white" stroke-width="1.25" stroke-linecap="round" stroke-linejoin="round"/>
<path d="M12 12V22.08" stroke="white" stroke-width="1.25" stroke-linecap="round" stroke-linejoin="round"/>
<path d="M3.268 6.959L12 12L20.732 6.959" stroke="white" stroke-width="1.25" stroke-linecap="round" stroke-linejoin="round"/>
</svg>
