<svg width="24" height="24" viewBox="0 0 24 24" fill="none" xmlns="http://www.w3.org/2000/svg">
<g clip-path="url(#clip0)">
<path d="M23.6302 15.011C22.9202 14.266 21.4642 13.841 19.4062 13.841C18.3062 13.841 17.0292 13.947 15.6452 14.195C14.7973 13.3796 14.0252 12.489 13.3382 11.534C12.8062 10.824 12.3442 10.044 11.9182 9.298C12.7352 6.814 13.1252 4.791 13.1252 3.336C13.1252 1.704 12.5222 0 10.7832 0C10.2512 0 9.71825 0.32 9.43425 0.781C8.65425 2.165 9.00925 5.181 10.3572 8.162C9.84987 9.68643 9.28175 11.19 8.65425 12.669C8.08625 14.018 7.44725 15.402 6.73725 16.679C2.83425 18.241 0.314247 20.051 0.0302469 21.469C-0.0757531 22.002 0.101247 22.499 0.492247 22.889C0.634247 22.996 1.13125 23.422 1.98225 23.422C4.57225 23.422 7.30525 19.234 8.68925 16.715C9.75425 16.36 10.8192 16.005 11.8832 15.721C13.0058 15.4161 14.1429 15.1675 15.2902 14.976C18.0222 17.424 20.4352 17.815 21.6422 17.815C23.1322 17.815 23.6652 17.211 23.8422 16.715C24.1622 16.075 23.9482 15.366 23.6292 15.011H23.6302ZM22.2102 16.041C22.1032 16.573 21.5702 16.928 20.8262 16.928C20.6132 16.928 20.4362 16.892 20.2222 16.857C18.8742 16.537 17.5962 15.863 16.3192 14.798C17.3038 14.6315 18.3007 14.5485 19.2992 14.55C20.0452 14.55 20.6842 14.585 21.1092 14.692C21.6062 14.798 22.3872 15.118 22.2092 16.04L22.2102 16.041ZM14.6862 14.373C13.696 14.5585 12.7136 14.7834 11.7412 15.047C10.8933 15.2674 10.0528 15.5159 9.22125 15.792C9.65351 14.9548 10.0561 14.1026 10.4282 13.237C10.8542 12.243 11.2082 11.214 11.5642 10.256C11.9182 10.859 12.3092 11.463 12.6992 11.995C13.3369 12.808 13.9996 13.601 14.6862 14.373V14.373ZM10.0382 1.171C10.101 1.04529 10.197 0.939189 10.3158 0.864253C10.4347 0.789318 10.5718 0.748416 10.7122 0.746C11.4572 0.746 11.5992 1.597 11.5992 2.272C11.5992 3.407 11.2442 5.146 10.6412 7.133C9.61125 4.365 9.54125 2.059 10.0382 1.171ZM6.13425 17.708C4.32425 20.689 2.58525 22.534 1.52125 22.534C1.32926 22.5352 1.14226 22.473 0.989247 22.357C0.776247 22.144 0.669247 21.896 0.740247 21.612C0.953247 20.547 3.01125 19.057 6.13425 17.708Z" fill="#EC1C24"/>
</g>
<defs>
<clipPath id="clip0">
<rect width="24" height="24" fill="white"/>
</clipPath>
</defs>
</svg>
