<svg width="24" height="24" viewBox="0 0 24 24" fill="none" xmlns="http://www.w3.org/2000/svg">
<path d="M8.8565 23.429C8.8565 23.504 8.84173 23.5782 8.81304 23.6475C8.78434 23.7168 8.74228 23.7797 8.68926 23.8328C8.63624 23.8858 8.57329 23.9278 8.50401 23.9565C8.43474 23.9852 8.36048 24 8.2855 24H2.5715C2.41993 24 2.27457 23.9398 2.16739 23.8326C2.06021 23.7254 2 23.5801 2 23.4285C2 23.2769 2.06021 23.1316 2.16739 23.0244C2.27457 22.9172 2.41993 22.857 2.5715 22.857H8.2855C8.6015 22.857 8.8565 23.113 8.8565 23.429ZM8.2855 20.57H7.1425C6.99093 20.57 6.84557 20.6302 6.73839 20.7374C6.63121 20.8446 6.571 20.9899 6.571 21.1415C6.571 21.2931 6.63121 21.4384 6.73839 21.5456C6.84557 21.6528 6.99093 21.713 7.1425 21.713H8.2855C8.43707 21.713 8.58243 21.6528 8.68961 21.5456C8.79679 21.4384 8.857 21.2931 8.857 21.1415C8.857 20.9899 8.79679 20.8446 8.68961 20.7374C8.58243 20.6302 8.43707 20.57 8.2855 20.57ZM2.5715 21.713H4.8555C5.00707 21.713 5.15243 21.6528 5.25961 21.5456C5.36679 21.4384 5.427 21.2931 5.427 21.1415C5.427 20.9899 5.36679 20.8446 5.25961 20.7374C5.15243 20.6302 5.00707 20.57 4.8555 20.57H2.5715C2.41993 20.57 2.27457 20.6302 2.16739 20.7374C2.06021 20.8446 2 20.9899 2 21.1415C2 21.2931 2.06021 21.4384 2.16739 21.5456C2.27457 21.6528 2.41993 21.713 2.5715 21.713ZM8.2855 18.286H2.5715C2.41993 18.286 2.27457 18.3462 2.16739 18.4534C2.06021 18.5606 2 18.7059 2 18.8575C2 19.0091 2.06021 19.1544 2.16739 19.2616C2.27457 19.3688 2.41993 19.429 2.5715 19.429H8.2855C8.43707 19.429 8.58243 19.3688 8.68961 19.2616C8.79679 19.1544 8.857 19.0091 8.857 18.8575C8.857 18.7059 8.79679 18.5606 8.68961 18.4534C8.58243 18.3462 8.43707 18.286 8.2855 18.286V18.286ZM16.2855 16H5.9995C5.84793 16 5.70257 16.0602 5.59539 16.1674C5.48821 16.2746 5.428 16.4199 5.428 16.5715C5.428 16.7231 5.48821 16.8684 5.59539 16.9756C5.70257 17.0828 5.84793 17.143 5.9995 17.143H16.2855C16.4371 17.143 16.5824 17.0828 16.6896 16.9756C16.7968 16.8684 16.857 16.7231 16.857 16.5715C16.857 16.4199 16.7968 16.2746 16.6896 16.1674C16.5824 16.0602 16.4371 16 16.2855 16V16ZM2.5715 17.143H3.7145C3.86607 17.143 4.01143 17.0828 4.11861 16.9756C4.22579 16.8684 4.286 16.7231 4.286 16.5715C4.286 16.4199 4.22579 16.2746 4.11861 16.1674C4.01143 16.0602 3.86607 16 3.7145 16H2.5715C2.41993 16 2.27457 16.0602 2.16739 16.1674C2.06021 16.2746 2 16.4199 2 16.5715C2 16.7231 2.06021 16.8684 2.16739 16.9756C2.27457 17.0828 2.41993 17.143 2.5715 17.143V17.143ZM19.7145 13.714H16.2855C16.1339 13.714 15.9886 13.7742 15.8814 13.8814C15.7742 13.9886 15.714 14.1339 15.714 14.2855C15.714 14.4371 15.7742 14.5824 15.8814 14.6896C15.9886 14.7968 16.1339 14.857 16.2855 14.857H19.7145C19.8661 14.857 20.0114 14.7968 20.1186 14.6896C20.2258 14.5824 20.286 14.4371 20.286 14.2855C20.286 14.1339 20.2258 13.9886 20.1186 13.8814C20.0114 13.7742 19.8661 13.714 19.7145 13.714V13.714ZM9.4285 14.857H13.9995C14.1511 14.857 14.2964 14.7968 14.4036 14.6896C14.5108 14.5824 14.571 14.4371 14.571 14.2855C14.571 14.1339 14.5108 13.9886 14.4036 13.8814C14.2964 13.7742 14.1511 13.714 13.9995 13.714H9.4285C9.27693 13.714 9.13157 13.7742 9.02439 13.8814C8.91721 13.9886 8.857 14.1339 8.857 14.2855C8.857 14.4371 8.91721 14.5824 9.02439 14.6896C9.13157 14.7968 9.27693 14.857 9.4285 14.857ZM2.5715 14.857H7.1425C7.29407 14.857 7.43943 14.7968 7.54661 14.6896C7.65379 14.5824 7.714 14.4371 7.714 14.2855C7.714 14.1339 7.65379 13.9886 7.54661 13.8814C7.43943 13.7742 7.29407 13.714 7.1425 13.714H2.5715C2.41993 13.714 2.27457 13.7742 2.16739 13.8814C2.06021 13.9886 2 14.1339 2 14.2855C2 14.4371 2.06021 14.5824 2.16739 14.6896C2.27457 14.7968 2.41993 14.857 2.5715 14.857V14.857ZM20.8555 11.43H11.7155C11.5641 11.43 11.4188 11.4902 11.3117 11.5972C11.2047 11.7043 11.1445 11.8496 11.1445 12.001C11.1445 12.1524 11.2047 12.2977 11.3117 12.4048C11.4188 12.5118 11.5641 12.572 11.7155 12.572H20.8575C21.0089 12.572 21.1542 12.5118 21.2613 12.4048C21.3683 12.2977 21.4285 12.1524 21.4285 12.001C21.4285 11.8496 21.3683 11.7043 21.2613 11.5972C21.1542 11.4902 21.0089 11.43 20.8575 11.43H20.8555ZM9.9995 12C9.9995 11.8486 9.93934 11.7033 9.83226 11.5962C9.72517 11.4892 9.57994 11.429 9.4285 11.429H5.9995C5.84806 11.429 5.70283 11.4892 5.59574 11.5962C5.48866 11.7033 5.4285 11.8486 5.4285 12C5.4285 12.1514 5.48866 12.2967 5.59574 12.4038C5.70283 12.5108 5.84806 12.571 5.9995 12.571H9.4285C9.57994 12.571 9.72517 12.5108 9.83226 12.4038C9.93934 12.2967 9.9995 12.1514 9.9995 12ZM2.5715 12.571H3.7145C3.86594 12.571 4.01117 12.5108 4.11826 12.4038C4.22534 12.2967 4.2855 12.1514 4.2855 12C4.2855 11.8486 4.22534 11.7033 4.11826 11.5962C4.01117 11.4892 3.86594 11.429 3.7145 11.429H2.5715C2.42006 11.429 2.27483 11.4892 2.16774 11.5962C2.06066 11.7033 2.0005 11.8486 2.0005 12C2.0005 12.1514 2.06066 12.2967 2.16774 12.4038C2.27483 12.5108 2.42006 12.571 2.5715 12.571V12.571ZM21.9995 9.143H16.2855C16.1339 9.143 15.9886 9.20321 15.8814 9.31039C15.7742 9.41757 15.714 9.56293 15.714 9.7145C15.714 9.86607 15.7742 10.0114 15.8814 10.1186C15.9886 10.2258 16.1339 10.286 16.2855 10.286H21.9995C22.1511 10.286 22.2964 10.2258 22.4036 10.1186C22.5108 10.0114 22.571 9.86607 22.571 9.7145C22.571 9.56293 22.5108 9.41757 22.4036 9.31039C22.2964 9.20321 22.1511 9.143 21.9995 9.143V9.143ZM2.5715 10.286H8.2855C8.43707 10.286 8.58243 10.2258 8.68961 10.1186C8.79679 10.0114 8.857 9.86607 8.857 9.7145C8.857 9.56293 8.79679 9.41757 8.68961 9.31039C8.58243 9.20321 8.43707 9.143 8.2855 9.143H2.5715C2.41993 9.143 2.27457 9.20321 2.16739 9.31039C2.06021 9.41757 2 9.56293 2 9.7145C2 9.86607 2.06021 10.0114 2.16739 10.1186C2.27457 10.2258 2.41993 10.286 2.5715 10.286V10.286ZM15.7145 7.429C15.7145 7.744 15.9695 8 16.2855 8H21.9995C22.1511 8 22.2964 7.93979 22.4036 7.83261C22.5108 7.72543 22.571 7.58007 22.571 7.4285C22.571 7.27693 22.5108 7.13157 22.4036 7.02439C22.2964 6.91721 22.1511 6.857 21.9995 6.857H16.2855C16.2104 6.857 16.1361 6.8718 16.0668 6.90056C15.9974 6.92932 15.9344 6.97147 15.8814 7.0246C15.8284 7.07772 15.7863 7.14079 15.7577 7.21018C15.729 7.27957 15.7144 7.35393 15.7145 7.429V7.429ZM7.1425 6.857C6.99093 6.857 6.84557 6.91721 6.73839 7.02439C6.63121 7.13157 6.571 7.27693 6.571 7.4285C6.571 7.58007 6.63121 7.72543 6.73839 7.83261C6.84557 7.93979 6.99093 8 7.1425 8H8.2855C8.43707 8 8.58243 7.93979 8.68961 7.83261C8.79679 7.72543 8.857 7.58007 8.857 7.4285C8.857 7.27693 8.79679 7.13157 8.68961 7.02439C8.58243 6.91721 8.43707 6.857 8.2855 6.857H7.1425V6.857ZM2.5715 8H4.8555C5.00707 8 5.15243 7.93979 5.25961 7.83261C5.36679 7.72543 5.427 7.58007 5.427 7.4285C5.427 7.27693 5.36679 7.13157 5.25961 7.02439C5.15243 6.91721 5.00707 6.857 4.8555 6.857H2.5715C2.41993 6.857 2.27457 6.91721 2.16739 7.02439C2.06021 7.13157 2 7.27693 2 7.4285C2 7.58007 2.06021 7.72543 2.16739 7.83261C2.27457 7.93979 2.41993 8 2.5715 8V8ZM19.1425 5.143C19.1425 5.458 19.3985 5.714 19.7145 5.714H20.8565C21.0081 5.714 21.1534 5.65379 21.2606 5.54661C21.3678 5.43943 21.428 5.29407 21.428 5.1425C21.428 4.99093 21.3678 4.84557 21.2606 4.73839C21.1534 4.63121 21.0081 4.571 20.8565 4.571H19.7155C19.6403 4.57087 19.5659 4.58557 19.4964 4.61427C19.427 4.64297 19.3639 4.6851 19.3107 4.73824C19.2576 4.79138 19.2155 4.85449 19.1868 4.92395C19.1581 4.99341 19.1434 5.06785 19.1435 5.143H19.1425ZM17.9995 5.143C17.9996 5.06793 17.985 4.99357 17.9563 4.92418C17.9277 4.85479 17.8856 4.79172 17.8326 4.7386C17.7796 4.68547 17.7166 4.64332 17.6472 4.61456C17.5779 4.5858 17.5036 4.571 17.4285 4.571H12.8555C12.7039 4.571 12.5586 4.63121 12.4514 4.73839C12.3442 4.84557 12.284 4.99093 12.284 5.1425C12.284 5.29407 12.3442 5.43943 12.4514 5.54661C12.5586 5.65379 12.7039 5.714 12.8555 5.714H17.4275C17.5789 5.714 17.7242 5.65384 17.8313 5.54676C17.9383 5.43967 17.9985 5.29444 17.9985 5.143H17.9995ZM2.5715 5.714H10.5715C10.7231 5.714 10.8684 5.65379 10.9756 5.54661C11.0828 5.43943 11.143 5.29407 11.143 5.1425C11.143 4.99093 11.0828 4.84557 10.9756 4.73839C10.8684 4.63121 10.7231 4.571 10.5715 4.571H2.5715C2.41993 4.571 2.27457 4.63121 2.16739 4.73839C2.06021 4.84557 2 4.99093 2 5.1425C2 5.29407 2.06021 5.43943 2.16739 5.54661C2.27457 5.65379 2.41993 5.714 2.5715 5.714V5.714ZM7.7145 2.857C7.7145 3.173 7.9695 3.429 8.2855 3.429H19.7145C19.8661 3.429 20.0114 3.36879 20.1186 3.26161C20.2258 3.15443 20.286 3.00907 20.286 2.8575C20.286 2.70593 20.2258 2.56057 20.1186 2.45339C20.0114 2.34621 19.8661 2.286 19.7145 2.286H8.2855C8.13406 2.286 7.98883 2.34616 7.88174 2.45324C7.77466 2.56033 7.7145 2.70556 7.7145 2.857V2.857ZM2.5715 3.429H5.9995C6.15107 3.429 6.29643 3.36879 6.40361 3.26161C6.51079 3.15443 6.571 3.00907 6.571 2.8575C6.571 2.70593 6.51079 2.56057 6.40361 2.45339C6.29643 2.34621 6.15107 2.286 5.9995 2.286H2.5715C2.41993 2.286 2.27457 2.34621 2.16739 2.45339C2.06021 2.56057 2 2.70593 2 2.8575C2 3.00907 2.06021 3.15443 2.16739 3.26161C2.27457 3.36879 2.41993 3.429 2.5715 3.429V3.429ZM2.5715 1.143H16.2855C16.4371 1.143 16.5824 1.08279 16.6896 0.975612C16.7968 0.868434 16.857 0.723071 16.857 0.5715C16.857 0.419929 16.7968 0.274566 16.6896 0.167388C16.5824 0.0602114 16.4371 0 16.2855 0L2.5715 0C2.41993 0 2.27457 0.0602114 2.16739 0.167388C2.06021 0.274566 2 0.419929 2 0.5715C2 0.723071 2.06021 0.868434 2.16739 0.975612C2.27457 1.08279 2.41993 1.143 2.5715 1.143V1.143Z" fill="#1E9EA6"/>
</svg>
