<svg width="24" height="24" viewBox="0 0 24 24" fill="none" xmlns="http://www.w3.org/2000/svg">
<path d="M21.7448 18.2848L13.4908 0.756487C13.2838 0.318287 12.8518 0.0291868 12.3622 0.00238684C11.8599 -0.0269132 11.4099 0.215387 11.156 0.627687L2.20401 15.1271C1.92671 15.5789 1.93221 16.1362 2.21981 16.5826L6.59571 23.3612C6.85651 23.7658 7.30841 24 7.77801 24C7.91121 24 8.04501 23.9812 8.17671 23.9423L20.8786 20.1855C21.2677 20.0704 21.5858 19.7951 21.7523 19.4302C21.9188 19.0653 21.9156 18.6474 21.7448 18.2848ZM19.8967 19.0367L9.11941 22.2242C8.79021 22.3217 8.47461 22.0369 8.54381 21.7048L12.3939 3.26619C12.4659 2.92139 12.9425 2.86659 13.0929 3.18589L20.2217 18.3239C20.3561 18.6095 20.2027 18.9463 19.8967 19.0367Z" fill="white"/>
</svg>
