<svg width="24" height="24" viewBox="0 0 24 24" fill="none" xmlns="http://www.w3.org/2000/svg">
<g clip-path="url(#clip0)">
<path d="M19.1656 5L17.9256 6.24L21.8956 10.21L17.9256 14.18L19.1656 15.42L23.7456 10.82C23.9087 10.6569 24.0003 10.4356 24.0003 10.205C24.0003 9.97435 23.9087 9.75314 23.7456 9.59L19.1656 5ZM6.95463 7.14L8.82463 8.89H17.0546L15.1846 7.14H6.95463ZM4.85463 9.38L0.254634 13.98C0.0915895 14.1431 0 14.3644 0 14.595C0 14.8256 0.0915895 15.0469 0.254634 15.21L4.85463 19.8L6.08463 18.56L2.11463 14.59L6.08463 10.62L4.84463 9.38H4.85463ZM8.82463 11.52L6.95463 13.28H15.1846L17.0546 11.52H8.82463ZM6.95463 15.91L8.82463 17.66H17.0546L15.1846 15.91H6.95463Z" fill="white"/>
</g>
<defs>
<clipPath id="clip0">
<rect width="24" height="24" fill="white"/>
</clipPath>
</defs>
</svg>
