<svg width="24" height="24" viewBox="0 0 24 24" fill="none" xmlns="http://www.w3.org/2000/svg">
<path d="M18.9311 5.29106C18.9232 5.24357 18.8998 5.20003 18.8646 5.16721C18.8294 5.13439 18.7843 5.11413 18.7364 5.10959C18.6588 5.09667 16.9603 4.97996 16.9603 4.97996C16.9603 4.97996 15.7808 3.81316 15.6641 3.68354C15.5345 3.55392 15.2882 3.59275 15.1845 3.61867C15.1715 3.61867 14.9252 3.69645 14.5233 3.82607C14.1474 2.6982 13.4474 1.66102 12.2287 1.66102H12.125C11.7749 1.2074 11.3471 1 10.9841 1C8.14501 1.01301 6.79674 4.55216 6.36893 6.35416C5.26699 6.69118 4.48905 6.93751 4.38535 6.96364C3.77608 7.15833 3.75005 7.17104 3.67238 7.75449C3.60752 8.20802 2 20.6534 2 20.6534L14.5363 22.9999L21.3299 21.5346C21.3294 21.5221 18.944 5.40777 18.9311 5.29106ZM13.8362 4.04658C13.5251 4.15028 13.1621 4.25398 12.7732 4.37069V4.13727C12.7836 3.55634 12.696 2.97782 12.5139 2.42605C13.1491 2.51653 13.5769 3.22981 13.8362 4.04658ZM11.749 2.56868C11.9176 3.0093 12.0342 3.63169 12.0342 4.47459V4.5913C11.3471 4.7987 10.5952 5.03191 9.84321 5.26544C10.2711 3.65761 11.0619 2.86687 11.749 2.56868ZM10.9063 1.77784C11.0361 1.78059 11.1622 1.82115 11.2693 1.89455C10.3614 2.32184 9.38949 3.39837 8.9747 5.5504C8.37833 5.73187 7.78197 5.91345 7.23755 6.0819C7.73012 4.44846 8.871 1.77784 10.9063 1.77784Z" fill="#95BF47"/>
<path d="M18.7366 5.10958C18.6589 5.09657 16.9605 4.97996 16.9605 4.97996C16.9605 4.97996 15.7808 3.81316 15.6641 3.68354C15.6405 3.65921 15.6123 3.63981 15.5812 3.62646C15.55 3.61311 15.5165 3.60608 15.4827 3.60576L14.5363 23L21.3299 21.5347C21.3299 21.5347 18.944 5.40777 18.9311 5.30407C18.9235 5.2552 18.9006 5.21002 18.8656 5.17505C18.8307 5.14009 18.7855 5.11716 18.7366 5.10958Z" fill="#5E8E3E"/>
<path d="M12.2909 8.66707L11.4482 11.1562C10.9384 10.9095 10.381 10.7766 9.81474 10.7668C8.4929 10.7668 8.42763 11.5968 8.42763 11.8039C8.42763 12.9448 11.3964 13.3726 11.3964 16.0431C11.3964 18.1437 10.0612 19.4916 8.27208 19.4916C6.11995 19.4921 5.01801 18.1567 5.01801 18.1567L5.58845 16.2508C5.58845 16.2508 6.71631 17.2232 7.67562 17.2232C7.79038 17.2276 7.90486 17.2088 8.01211 17.1677C8.11937 17.1266 8.21716 17.0642 8.29956 16.9842C8.38196 16.9042 8.44726 16.8083 8.49148 16.7023C8.53571 16.5963 8.55794 16.4824 8.55684 16.3675C8.55684 14.8766 6.11964 14.8119 6.11964 12.3746C6.11995 10.3265 7.59784 8.33006 10.5667 8.33006C11.7334 8.34307 12.2909 8.66707 12.2909 8.66707Z" fill="white"/>
</svg>
