<svg width="24" height="24" viewBox="0 0 24 24" fill="none" xmlns="http://www.w3.org/2000/svg">
<path d="M9.66633 8.08521C9.58773 8.51217 9.52428 8.96904 9.58349 9.40466C9.79778 10.9814 10.9303 12.0907 11.8967 13.2164C12.3787 13.7778 12.8821 14.3689 13.1201 15.0978C13.487 16.2211 12.893 17.3251 12.2308 18.1766C12.1141 18.3266 11.993 18.4745 11.8675 18.6164C11.6272 18.8881 11.2338 19.2243 11.4606 19.6426C11.5993 19.8982 11.9299 19.9854 12.1707 19.8389C12.2881 19.7675 12.3779 19.6448 12.4726 19.5449C12.6922 19.3132 12.8966 19.0659 13.0927 18.8119C13.2837 18.5644 13.4564 18.3005 13.6163 18.03C13.7012 17.8864 13.765 17.7195 13.869 17.5901C14.1134 17.2864 14.4086 17.0165 14.6758 16.7349L16.2529 15.0734L17.4357 13.8273C17.6085 13.6452 17.8651 13.4514 17.9691 13.2164C18.1604 13.3105 18.3751 13.3447 18.5721 13.2408C19.0641 12.9814 18.9997 12.231 18.5025 12.0306C18.1764 11.8991 17.7927 12.1091 17.6978 12.4589C17.6713 12.5566 17.665 12.6523 17.6819 12.7522C17.6952 12.8309 17.733 12.9198 17.6957 12.9965C17.6285 13.135 17.4697 13.2539 17.3661 13.363L16.624 14.1449L14.1656 16.7349C14.2211 16.301 14.2965 15.8828 14.2544 15.4399C14.1374 14.207 13.3151 13.2147 12.5614 12.3368C12.0017 11.6848 11.3638 11.0622 10.958 10.2843C10.7182 9.82456 10.5489 9.32759 10.598 8.7938C10.7073 7.60324 11.5541 6.71107 12.2596 5.86169C12.5499 5.51208 12.4054 4.92067 11.916 4.90996C11.6015 4.90325 11.3747 5.21848 11.1872 5.4463C10.8886 5.80903 10.5998 6.17234 10.3434 6.57028C10.2077 6.78098 10.1134 7.03436 9.9602 7.23001C9.57008 7.72842 9.07952 8.16589 8.64588 8.62276L6.04836 11.3594C5.98859 11.4223 5.9224 11.5168 5.83963 11.5463C5.75602 11.576 5.64725 11.5201 5.56132 11.5152C5.33756 11.5025 5.12222 11.6238 5.00459 11.8237C4.64305 12.4381 5.39666 13.1185 5.93031 12.684C6.07953 12.5625 6.16998 12.3397 6.15945 12.1413C6.15339 12.0272 6.08398 11.9043 6.15066 11.7992C6.28281 11.5911 6.50661 11.4142 6.67454 11.2372L7.74138 10.1133L9.66633 8.08521Z" fill="white"/>
<path d="M16.5247 1.48384L2.94059 4.87075C1.86883 5.13797 1.21662 6.22343 1.48384 7.29519L4.87075 20.8793C5.13797 21.9511 6.22343 22.6033 7.29519 22.3361L20.8793 18.9492C21.9511 18.6819 22.6033 17.5965 22.3361 16.5247L18.9492 2.94059C18.6819 1.86883 17.5965 1.21662 16.5247 1.48384Z" stroke="#FF186B" stroke-width="1.25"/>
</svg>
