<svg width="24" height="24" viewBox="0 0 24 24" fill="none" xmlns="http://www.w3.org/2000/svg">
<path d="M22.1024 15.7832C23.4374 10.4894 20.2216 4.28807 14.7569 1C17.1834 4.28149 18.1567 8.17457 17.3084 11.6468C17.2492 11.9493 17.1243 12.2584 17.0059 12.5609C15.9603 11.8375 11.1137 8.85191 5.28721 2.95311C5.10308 2.76898 8.44376 7.70109 12.1461 11.5876C10.3837 10.5551 5.46477 7.02375 2.36741 4.1697C2.7291 4.78128 3.21573 5.38629 3.70237 6.05705C6.31309 9.40431 9.65377 13.4158 13.7244 16.5197C10.8704 18.2821 6.86549 18.407 2.79486 16.5197C1.7624 16.0922 0.914083 15.4872 0 14.8165C1.70322 17.493 4.31395 19.8669 7.47049 21.2019C11.2386 22.8459 15.0922 22.8591 18.2159 20.9586C19.5509 20.2878 22.2208 19.5579 23.6807 22.3593C23.9832 23.1484 24.7131 19.4987 21.9775 16.158C22.0432 16.0265 22.0432 15.9081 22.1024 15.7832Z" fill="url(#paint0_linear)"/>
<defs>
<linearGradient id="paint0_linear" x1="12.0014" y1="1.00243" x2="12.0014" y2="22.4621" gradientUnits="userSpaceOnUse">
<stop stop-color="#F88A36"/>
<stop offset="1" stop-color="#FD2020"/>
</linearGradient>
</defs>
</svg>
