<svg width="24" height="24" viewBox="0 0 24 24" fill="none" xmlns="http://www.w3.org/2000/svg">
<rect x="1" y="1" width="22" height="22" rx="4" fill="#1A73E8"/>
<path d="M18.047 10.5854V10.582C18.559 10.7008 19.0243 10.9686 19.3843 11.3515C19.5824 11.5579 19.7547 11.7876 19.8973 12.0356C19.8973 12.0629 18.9738 12.6871 18.4112 13.036C18.3907 13.0496 18.3086 12.9607 18.218 12.8256C18.0092 12.4654 17.6302 12.2375 17.2142 12.222C16.5661 12.1775 16.1488 12.5178 16.1522 13.077C16.1469 13.2162 16.1788 13.3544 16.2446 13.4772C16.3865 13.773 16.6516 13.9491 17.4827 14.3083C19.0132 14.9666 19.6681 15.401 20.0751 16.0183C20.53 16.7024 20.6309 17.8071 20.3231 18.6245C19.9811 19.5137 19.1431 20.1174 17.9581 20.3174C17.4168 20.3794 16.8699 20.3737 16.3301 20.3003C15.5027 20.164 14.7405 19.7667 14.1549 19.1666C13.9582 18.9494 13.5752 18.3834 13.5991 18.3423C13.6615 18.296 13.7273 18.2542 13.7958 18.2175L14.5875 17.7797L15.2014 17.424L15.3297 17.6138C15.5461 17.9234 15.8216 18.1873 16.1403 18.3902C16.8243 18.7493 17.758 18.6997 18.2197 18.2842C18.5396 17.9699 18.5893 17.472 18.3377 17.1008C18.1667 16.8631 17.8247 16.663 16.8688 16.2458C15.7658 15.7704 15.2904 15.4762 14.856 15.0077C14.5848 14.6985 14.3846 14.3337 14.2694 13.9389C14.1835 13.4878 14.1708 13.0259 14.2318 12.5708C14.4593 11.5055 15.2579 10.7616 16.4241 10.541C16.9642 10.4741 17.5113 10.4891 18.047 10.5854ZM13.0194 10.5974L13.0296 11.4781V12.3536H10.2542V20.2593H8.28591V12.3519H5.50363V11.4969C5.49496 11.202 5.50181 10.9069 5.52415 10.6128C5.53197 10.604 6.08924 10.6002 6.94837 10.5986L7.2842 10.5981C7.34237 10.598 7.4016 10.598 7.46183 10.5979L13.0194 10.5974Z" fill="white"/>
</svg>
