<svg width="24" height="24" viewBox="0 0 24 24" fill="none" xmlns="http://www.w3.org/2000/svg">
<path d="M22.4732 18.4979L12.7462 24V19.7146L18.8067 16.3808L22.4732 18.4979ZM23.1386 17.8953V6.38852L19.5791 8.44281V15.8387L23.1386 17.8953ZM2.16537 18.4979L11.8924 24V19.7146L5.83191 16.3808L2.16537 18.4979V18.4979ZM1.5 17.8953V6.38852L5.05952 8.44281V15.8387L1.5 17.8953V17.8953ZM1.91644 5.64405L11.8924 0V4.14347L5.50155 7.65878L5.45269 7.6867L1.91644 5.64405V5.64405ZM22.7222 5.64405L12.7462 0V4.14347L19.1371 7.65878L19.1859 7.6867L22.7222 5.64405V5.64405Z" fill="#8ED6FB"/>
<path d="M11.8924 18.7398L5.91333 15.4525V8.93834L11.8924 12.3908V18.7398ZM12.7462 18.7398L18.7253 15.4525V8.93834L12.7462 12.3908V18.7398ZM6.31814 8.18456L12.3205 4.88329L18.3228 8.18456L12.3205 11.651L6.31814 8.18456V8.18456Z" fill="#1C78C0"/>
</svg>
