<svg width="24" height="24" viewBox="0 0 24 24" fill="none" xmlns="http://www.w3.org/2000/svg">
<path d="M5.52 3.001C5.05703 3.00061 4.59852 3.09152 4.17073 3.26854C3.74293 3.44556 3.35425 3.70521 3.02692 4.03263C2.6996 4.36005 2.44006 4.7488 2.26316 5.17665C2.08626 5.60449 1.99547 6.06303 1.996 6.526V9.084C1.99667 9.62525 1.7903 10.1463 1.41919 10.5402C1.04807 10.9342 0.540321 11.1713 0 11.203L0.03 11.765L0 12.326C0.540667 12.3577 1.04871 12.5951 1.41987 12.9895C1.79104 13.3839 1.99718 13.9054 1.996 14.447V17.395C1.99441 18.373 2.3811 19.3116 3.07112 20.0046C3.76114 20.6976 4.69804 21.0884 5.676 21.091V19.968C4.99791 19.9672 4.34784 19.6974 3.86845 19.2178C3.38906 18.7383 3.11953 18.0881 3.119 17.41V14.447C3.11933 13.918 2.99007 13.3969 2.74254 12.9294C2.495 12.4619 2.13672 12.0621 1.699 11.765C2.13542 11.4666 2.49273 11.0665 2.74011 10.5993C2.98749 10.1321 3.11752 9.61168 3.119 9.083V6.526C3.12163 5.88993 3.37541 5.28065 3.82508 4.83079C4.27476 4.38092 4.88393 4.1269 5.52 4.124H5.957V3.001H5.52ZM18.058 3.001V4.124H18.495C18.8095 4.12452 19.1207 4.18709 19.4109 4.30812C19.7012 4.42916 19.9646 4.60627 20.1863 4.82932C20.408 5.05236 20.5834 5.31695 20.7026 5.60793C20.8218 5.89891 20.8824 6.21055 20.881 6.525V9.083C20.8825 9.61168 21.0125 10.1321 21.2599 10.5993C21.5073 11.0665 21.8646 11.4666 22.301 11.765C21.8633 12.0621 21.505 12.4619 21.2575 12.9294C21.0099 13.3969 20.8807 13.918 20.881 14.447V17.41C20.8805 18.0881 20.6109 18.7383 20.1315 19.2178C19.6522 19.6974 19.0021 19.9672 18.324 19.968V21.091C19.302 21.0884 20.2389 20.6976 20.9289 20.0046C21.6189 19.3116 22.0056 18.373 22.004 17.395V14.446C22.0033 13.9048 22.2097 13.3837 22.5808 12.9898C22.9519 12.5958 23.4597 12.3587 24 12.327L23.97 11.765L24 11.204C23.4595 11.1723 22.9516 10.9351 22.5805 10.5409C22.2093 10.1467 22.0031 9.62542 22.004 9.084V6.524C22.0056 5.59149 21.6369 4.69649 20.9789 4.0357C20.3209 3.37491 19.4275 3.00238 18.495 3L18.058 3.001ZM6.253 7.524L9.731 10.783C10.3549 11.3475 11.1662 11.6601 12.0075 11.6601C12.8488 11.6601 13.6601 11.3475 14.284 10.783L17.762 7.523H16.093L13.443 9.987C13.0494 10.3486 12.5344 10.5492 12 10.5492C11.4656 10.5492 10.9506 10.3486 10.557 9.987L7.922 7.524H6.253ZM11.859 12.408C11.0674 12.4432 10.3137 12.757 9.731 13.294L6.238 16.568H7.906L10.573 14.073C10.9665 13.7117 11.4813 13.5113 12.0155 13.5113C12.5497 13.5113 13.0645 13.7117 13.458 14.073L16.108 16.568H17.778L14.284 13.294C13.9582 12.9937 13.5762 12.7608 13.16 12.6088C12.7438 12.4567 12.3017 12.3885 11.859 12.408V12.408Z" fill="white"/>
</svg>
